<?xml version="1.0" encoding="utf-8" ?><svg xmlns="http://www.w3.org/2000/svg" xmlns:xlink="http://www.w3.org/1999/xlink" width="1024" height="1024" viewBox="0 0 1024 1024"><path fill="#202020" transform="translate(0.000244141 1.52588e-05)" d="M449.44 201.125C444.439 172.16 438.232 143.047 430.324 114.736C427.473 104.525 421.461 95.5221 418.854 85.3643C417.785 81.1993 416.728 72.5678 421.42 70.4595C426.261 70.2424 430.305 78.031 430.818 81.966C432.353 93.7337 433.459 104.372 436.79 116.023C438.876 123.317 439.392 131.424 441.78 138.737C444.687 149.102 446.881 160.566 450.862 170.523C451.732 172.833 452.431 175.096 453.798 177.132L454.273 176.632L455.031 177.669L457.266 176.907C459.431 185.893 461.545 192.156 464.632 200.749C464.384 189.541 462.524 178.527 461.371 167.395L462.011 166.706C461.28 161.654 459.885 153.171 459.865 148.25L460.116 148.051C461.455 154.489 462.511 161.551 463.915 167.615L464.707 167.925C465.935 172.288 467.076 176.322 467.778 180.811C468.164 182.102 467.921 181.677 468.801 182.713C469.265 181.167 469.131 181.954 468.699 180.168C468.174 175.741 467.383 170.534 467.163 166.185C467.433 164.267 467.71 163.317 468.244 161.438C470.146 169.568 474.572 198.553 478.41 203.095L479.189 203.136C481.618 198.857 475.119 154.07 474.234 146.006C472.948 134.294 472.067 123.507 472.296 111.246C481.708 133.073 478.161 162.112 488.609 184.159C490.177 187.467 490.067 197.077 494.48 198.574C495.639 197.95 496.027 197.283 496.303 196.01C497.562 190.219 496.155 182.648 495.715 176.694C494.751 163.659 488.925 112.132 493.289 103.008C494.548 100.377 496.829 98.2471 499.648 97.4137C504.973 95.839 509.421 98.0618 513.955 100.551C519.217 87.4143 525.818 85.9626 528.061 101.808C528.886 107.638 528.546 114.967 528.55 120.931C528.501 135.157 528.28 149.383 527.888 163.604C527.698 172.49 527.206 184.024 528.229 192.775C529.067 191.524 530.691 185.376 531.326 183.425C532.68 186.619 529.45 192.503 533.786 196.464L534.613 196.34C537.755 192.836 538.027 171.031 538.316 165.291L541.011 117.165C541.453 109.57 541.627 98.9825 542.618 91.724L542.706 91.1123L543.186 92.3231L543.802 92.0877L543.971 91.6684C544.018 93.3882 543.856 95.3816 544.71 96.777C544.827 96.6324 544.943 96.4865 545.061 96.3431C546.241 94.9162 547.287 93.6789 549.293 93.5937C550.629 93.5369 551.872 94.1737 552.761 95.1404C559.507 102.477 546.821 179.647 549.132 195.358C549.396 197.151 549.805 198.704 551.29 199.868C557.343 196.387 556.868 153.191 568.409 148.077C578.78 143.481 580.361 155.947 581.857 161.551C584.269 158.615 588.151 152.709 592.244 155.47C597.011 164.43 584.068 205.646 584.007 220.197C590.833 207.563 595.402 181.525 602.072 165.087C598.511 187.256 592.655 202.207 587.395 223.499C594.447 211.294 611.81 149.329 613.676 147.246L615.708 148.757L617.25 149.214C614.869 161.277 598.173 214.563 600.903 221.379C603.524 221.045 612.115 199.191 613.744 195.425L615.416 195.974L615.806 197.28L616.234 196.784C616.696 197.203 617.545 197.896 617.869 198.361C617.497 199.821 617.247 200.099 617.442 201.526C620.038 197.67 622.13 190.335 623.658 185.753L632.473 159.999C636.738 147.606 642.347 123.392 657.274 120.147C661.587 119.209 667.047 119.693 670.856 117.295C677.082 113.376 683.497 97.4735 693.083 103.87C694.077 104.533 694.848 105.481 695.401 106.533C696.852 109.296 696.891 112.498 698.087 115.326C699.524 118.724 702.651 121.239 703.337 124.986C705.386 136.183 666.595 214.355 660.563 229.64C663.064 232.564 666.25 236.509 668.908 239.162C686.533 215.723 702.416 190.388 719.821 166.487C708.551 189.762 693.03 216.053 683.356 238.74C691.892 228.965 703.422 215.432 710.33 204.247L711.662 204.614C705.473 214.005 688.723 238.349 685.118 246.775L685.341 247.538C688.299 247.11 696.137 236.234 698.359 233.253C714.821 211.166 730.706 188.451 748.627 167.521C750.278 165.592 752.155 164.732 754.568 164.247C759.117 163.334 766.4 167.524 766.155 172.607C765.77 180.556 756.654 188.329 752.565 195.217C752.765 197.751 753.089 201.132 751.748 203.429C748.663 208.713 744.668 213.752 740.913 218.595C728.64 234.423 715.464 249.566 703.439 265.584C700.053 270.094 697.238 274.847 693.982 279.415C696.842 277.286 717.033 258.244 716.879 258.253C716.267 259.487 716.57 259.122 715.615 260.066C713.217 262.835 703.694 273.651 702.12 276.559C702.596 276.938 703.557 277.628 703.931 278.108C701.071 281.607 699.312 284.324 696.836 288.145C702.607 283.303 712.94 275.012 717.792 269.808C719.75 268.093 722.047 265.795 724.092 264.313C729.879 260.118 735.573 251.632 741.407 260.043C753.01 251.842 762.909 242.999 774.049 234.304C783.192 227.168 792.922 220.474 804.244 227.674C819.973 216.569 832.992 207.207 848.201 195.235C851.377 198.701 855.169 202.598 858.206 206.074C846.665 216.17 834.37 225.01 822.732 234.856C831.704 236.648 835.445 238.141 842.143 244.707C844.758 243.424 846.733 242.395 849.528 241.48C864.519 245.837 858.995 253.861 850.083 261.711C849.766 268.62 849.39 270.934 846.511 277.282C850.46 283.68 851.774 288.773 849.985 296.451C848.401 303.207 844.062 308.993 838.02 312.408C827.862 318.231 818.617 314.82 809.631 309.24C805.039 311.161 801.665 311.188 796.771 311.587C778.42 327.651 756.531 339.701 736.592 354.306C745.009 351.111 783.404 328.523 788.474 329.269L788.64 329.43C786.077 331.766 783.453 334.034 780.773 336.233C782.435 335.499 790.094 332.217 791.039 331.36C792.665 330.568 794.921 329.768 796.649 329.097L797.521 329.976C791.605 333.7 783.704 338.405 778.038 342.317C774.597 344.02 766.364 349.409 763.462 351.913C764.028 352.037 777.819 345.705 779.035 344.741C785.952 341.978 793.829 337.926 800.66 334.679C811.831 329.353 823.09 324.213 834.432 319.262C828.919 323.917 821.395 327.627 817.453 331.352L817.617 331.809C828.523 332.313 829.477 336.312 826.449 346.717C837.661 342.434 849.475 336.49 860.357 331.254L916.509 304.09L919.246 308.777C909.775 313.508 896.136 318.636 886.028 322.958C869.374 330.2 852.847 337.728 836.453 345.54C823.563 351.123 812.391 355.664 800.336 363.042C810.809 359.66 825.702 354.128 835.917 349.596C843.285 346.841 892.66 327.243 896.815 327.522C892.688 331.002 879.916 336.612 874.701 339.192C857.029 347.934 837.89 355.42 820.408 364.394C847.098 356.942 873.13 346.448 899.809 339.103C906.943 337.139 909.617 339.518 913.921 344.763C919.087 343.827 924.391 342.996 929.016 346.218C930.315 347.123 931.716 348.477 932.067 350.083C932.45 351.835 931.476 353.596 930.391 354.893C921.84 365.117 873.559 376.571 858.446 384.275C863.513 385.485 900.4 368.812 908.032 375.326C909.455 383.09 862.757 396.563 856.041 398.958C863.916 397.942 875.133 395.123 883.053 393.18C896.539 389.871 908.152 387.348 921.861 385.276C905.752 392.362 887.607 396.714 870.67 401.688C850.395 407.643 829.856 413.504 809.564 419.35C801.692 421.618 775.035 428.273 768.355 431.804C806.549 425.089 845.843 415.348 884.022 409.055L884.532 410.584C863.359 416.557 841.961 420.253 820.911 425.932C827.742 434.575 827.931 436.98 821.721 446.376C832.69 444.409 846.831 440.93 855.361 448.141C857.074 449.59 859.045 450.862 861.053 451.889C855.62 453.143 850.201 456.124 845.19 457.123C835.555 459.043 825.2 459.928 815.42 460.896C803.927 461.929 792.467 463.299 781.055 465.006L779.682 465.393L779.901 465.921L781.09 466.114C788.288 465.827 797.731 466.219 805.195 466.179L858.707 465.554L919.085 464.577C928.777 464.426 938.968 463.918 948.593 464.169L949.605 465.443C935.95 466.038 920.364 466.89 906.938 468.853C910.754 469.549 927.377 471.393 928.72 472.821L928.18 472.767C925.094 472.483 922.203 472.537 919.11 472.549C924.523 493.791 913.251 491.926 896.447 492.727C884.165 493.312 871.696 492.557 859.495 492.962L850.188 493.566C852.37 493.958 856.145 494.752 858.231 494.842C867.061 496.938 875.477 499.059 872.419 510.313C870.632 516.889 863.404 518.025 857.49 518.021C832.641 518.001 807.091 513.379 782.282 513.915C793.032 516.781 806.279 518.641 817.374 520.182L815.332 521.228C800.738 519.252 775.974 517.464 761.728 518.509C767.188 521.099 781.821 524.436 788.182 526.014C811.37 531.615 834.63 536.91 857.958 541.897C865.852 543.603 876.538 545.092 883.767 548.626C887.354 550.38 889.285 555.917 890.791 559.511C904.409 564.949 919.94 567.468 933.948 572.193C939.492 574.063 942.11 574.311 947.68 577.234L948.442 577.625C949.866 578.373 950.171 578.545 951.066 579.955L951.022 581.172C947.288 584.193 922.661 576.575 916.931 575.222C892.758 569.515 868.78 561.197 844.12 557.776C847.047 559.46 850.132 561.307 853.101 562.872C849.648 563.042 846.164 562.963 843.179 564.753L842.738 565.756C845.609 567.629 858.167 571.72 862.233 573.135C878.407 578.763 892.846 582.87 908.407 590.402C885.657 585.524 863.615 578.846 841.2 572.758C821.91 567.518 802.593 561.187 783.12 556.891C783.285 556.982 783.45 557.076 783.616 557.166C792.449 561.92 825.433 570.397 828.428 578.665C828.729 579.496 828.651 580.17 828.534 581.015C822.078 589.259 777.567 568.974 767.755 566.3C785.321 577.707 809.091 586.357 828.488 595.383L828.412 596.504C814.014 590.341 796.553 582.907 781.911 578.155C779.203 577.393 776.843 576.727 774.185 575.786C776.263 577.143 779.019 579.062 781.141 580.209C799.225 589.569 820.131 599.518 838.547 608.482L837.906 611.018C822.313 604.261 806.784 597.357 791.321 590.308C781.452 585.925 771.946 581.43 761.666 578.099C771.425 584.808 782.309 589.62 792.579 595.804C801.659 601.171 810.983 608.221 813.65 618.998C814.699 623.236 813.676 629.529 815.35 633.359C819.315 642.437 826.248 641.419 817.598 650.607C837.691 665.455 859.257 678.348 879.328 693.199C881.069 694.487 884.075 696.616 885.597 698.065L884.732 699.116C872.551 692.511 858.036 682.842 846.172 675.315L795.999 643.554C782.689 635.094 769.516 626.457 755.892 618.509C766.136 628.164 776.102 634.751 787.564 642.886C799.022 651 810.418 659.201 821.752 667.488C827.851 671.936 838.669 679.528 843.803 684.643L843.691 685.211C841.453 683.994 839.9 682.631 837.832 681.284C808.244 662.009 779.459 642.141 749.472 623.412C760.488 634.63 774.093 644.123 786.645 653.585C795.027 659.991 803.268 666.579 811.361 673.345C816.083 677.227 831.999 688.49 831.409 694.92C829.981 710.48 820.262 709.794 808.605 705.112L802.146 701.906L808.964 707.869C819.319 717.686 831.017 726.65 841.72 736.071C846.365 740.159 854.8 747.444 858.268 752.325C852.845 748.087 847.274 744.161 841.818 739.818C820.449 722.489 799.185 705.032 778.026 687.447C767.911 679.1 757.844 670.695 747.825 662.232C743.074 658.217 724.167 641.877 719.597 639.995C724.162 644.711 728.868 649.287 733.711 653.717C740.73 660.104 771.936 685.319 773.589 692.033C773.959 693.534 773.895 695.165 772.822 696.383C772.078 697.228 770.972 697.758 769.858 697.864C755.142 699.26 719.595 658.793 707.089 648.915L706.58 648.52C705.651 646.968 699.479 642.073 697.697 640.607L695.851 639.095L695.536 639.358C696.479 641.121 696.653 641.286 698.033 642.773C700.118 645.114 703.458 649.171 705.552 651.16C740.269 686.577 776.071 720.188 809.212 757.194C792.451 746.489 779.98 732.624 764.569 720.254C775.445 735.932 793.168 750.918 799.853 767.767C788.517 761.864 782.544 756.781 772.742 748.796C779.271 761.836 789.455 770.594 798.731 781.493C806.109 790.162 818.361 801.172 804.103 809.978C797.48 810.162 794.037 809.488 788.897 804.328C780.481 795.88 773.312 785.462 765.341 776.503C763.658 777.895 761.927 779.374 760.204 780.703C757.488 800.142 747.344 808.311 728.408 810.893C733.912 817.465 745.694 838.445 748.511 846.381C743.17 840.675 728.069 818.176 724.244 810.651C717.418 808.746 714.279 807.754 708.624 803.391C701.163 805.563 694.408 805.688 687.32 801.891C680.803 798.388 675.977 792.402 673.936 785.291C671.866 778.331 672.701 770.831 676.25 764.496C677.93 761.475 680.927 758.171 683.451 755.83L683.519 747.873C672.034 728.521 659.25 710.227 647.371 691.141C645.838 688.677 644.019 686.146 642.361 683.744C644.546 689.66 646.167 693.768 648.88 699.495C651.855 705.775 657.835 716.463 659.887 722.928C656.672 719.128 652.266 710.265 648.641 705.178C650.705 710.502 654.081 717.205 656.569 722.501C657.894 725.428 662.157 733.801 661.196 736.63C658.966 737.884 657.178 737.237 654.394 738.165L654.024 738.992C654.582 740.101 654.795 740.404 654.698 741.65L655.114 741.295L654.624 741.573C651.927 739.1 650.858 734.535 648.562 731.162C644.786 725.616 639.58 712.636 632.012 712.049C628.678 711.79 626.341 714.162 627.473 717.857C630.662 728.261 635.902 738.107 639.429 748.404C640.804 754.079 638.756 758.323 640.194 764.301C641.717 770.628 648.523 785.463 643.324 790.647L642.299 790.632C639.443 788.115 631.181 769.463 627.089 763.501L626.753 763.021C629.359 771.154 632.568 778.824 635.331 786.833C637.4 792.829 639.315 800.045 640.934 806.236C631.649 788.503 625.963 769.623 616.236 752.288C626.392 793.479 646.351 835.571 657.5 875.989C645.718 858.575 641.242 842.09 634.166 822.903L616.429 774.844C613.665 767.161 608.764 752.19 604.988 745.318C610.001 767.641 616.778 789.238 622.725 811.32C624.696 818.638 628.618 829.424 625.514 836.645C621.793 845.301 609.012 841.808 606.735 833.767C592.43 792.854 582.572 750.379 570.911 708.643C569.86 705.046 565.222 686.616 563.815 685.091C564.968 691.668 566.957 705.022 568.613 710.939C572.574 730.753 578.919 752.447 581.842 771.954L580.411 771.382C577.422 762.39 574.83 751.33 572.149 741.951C571.525 746.38 571.33 758.428 568.848 761.245C563.699 758.246 553.542 695.722 550.713 685.138L550.001 682.554L549.644 682.47C549.438 684.905 549.541 685.789 549.807 688.238C552.699 716.556 555.878 744.843 559.344 773.096C560.533 782.388 561.773 791.673 563.061 800.951C563.947 807.239 564.851 813.209 565.362 819.556C566.293 831.129 560.674 833.297 550.63 836.214C550.899 848.799 550.65 867.171 551.683 879.106C548.115 870.407 547.831 839.403 543.407 833.755L542.69 833.809C538.808 842.648 544.265 879.601 545.083 890.509C545.566 896.952 557.293 936.509 544.221 934.167C543.201 933.102 542.889 932.756 542.753 930.995C542.083 922.278 541.521 913.371 541.039 904.655C540.275 888.251 539.21 871.862 537.843 855.497C537.208 848.278 536.399 838.519 534.867 831.511C533.648 825.831 531.555 820.376 528.662 815.339C528.88 824.906 532.679 879.915 512.087 861.238C509.134 858.56 509.556 844.233 507.707 843.267C502.028 850.953 509.283 885.669 491.96 887.465C488.074 887.868 484.274 886.825 481.285 884.301C478.569 881.975 476.925 878.637 476.739 875.066C476.331 867.929 477.271 847.827 477.627 840.777C478.722 820.848 479.941 800.926 481.282 781.012C482.188 766.787 483.389 749.666 482.929 735.565C480.197 749.961 478.383 764.191 476.701 778.745C475.89 785.76 474.063 795.567 473.836 802.281L472.9 801.026C473.834 756.257 480.256 718.703 483.598 675.036C483.907 673.5 484.122 672.105 483.7 670.593L483.296 671.483C482.929 673.056 482.235 676.502 481.768 677.891C479.983 678.751 478.7 679.088 477.753 680.775L477.732 681.47C476.17 686.864 474.558 698.551 473.187 702.04C471.208 703.72 470.428 710.533 470.168 713.239L469.621 712.954C469.201 711.004 470.341 708.93 470.287 705.916L469.794 705.066C473.204 687.748 475.312 676.922 477.107 659.47C472.6 673.459 470.179 686.012 467.089 700.318C466.524 702.937 463.899 715.861 463.117 717.638L462.726 713.526C455.334 731.987 449.086 762.268 443.216 782.411L440.357 782.66C441.135 776.84 442.37 770.675 443.191 764.584C441.507 768.02 435.315 785.553 434.71 786.31C434.385 784.924 438.222 769.736 438.72 766.98C442.24 747.498 446.157 727.943 449.074 708.371C443.438 721.824 441.447 733.553 437.221 747.165L436.32 747.116C441.132 724.044 448.742 702.068 453.443 678.01C447.096 691.507 441.93 707.611 437.074 721.845C431.677 737.777 426.101 753.648 420.346 769.454C418.64 774.19 413.012 791.677 410.491 794.298C406.673 798.266 396.497 804.415 390.944 809.574C392.025 806.034 393.222 802.532 394.533 799.071C392.99 796.731 390.472 793.13 389.219 790.752C386.293 796.138 384.062 801.454 381.404 806.41L380.196 806.177C381.156 802.726 383.81 795.963 385.1 792.377L396.201 761.759C388.149 773.456 382.84 789.239 375.401 801.589L374.194 800.505C376.196 791.673 382.422 775.609 385.352 765.298C382.713 769.18 374.103 783.184 369.511 783.232C365.392 779.09 376.134 762.123 375.821 756.067L375.142 756.236C371.283 760.787 368.966 771.046 363.256 772.505C361.437 772.159 362.176 772.578 360.945 771.237C359.631 766.354 365.801 755.777 368.044 751.078C375.577 735.678 383.284 720.363 391.164 705.137C393.634 700.125 411.538 666.629 411.191 663.975C409.914 665.455 407.58 669.85 406.282 671.76C399.526 681.706 393.299 692.467 387.13 702.838C380.458 712.987 369.235 733.223 359.254 739.126C348.398 739.893 344.245 732.579 349.675 723.367C365.378 696.729 385.013 671.954 400.296 645.103C393.95 651.413 387.629 659.071 381.765 665.905L353.028 699.395L322.134 734.805C317.694 739.953 311.487 746.71 307.646 752.008C311.352 743.965 313.726 739.045 318.59 731.481C326.534 719.258 337.001 707.615 345.724 695.795C344.367 696.502 316.398 726.759 314.12 729.725C313.032 730.394 309.49 734.161 308.286 735.28C301.468 741.613 294.127 750.084 286.215 754.994C281.241 758.08 277.554 757.428 272.474 756.113C266.845 760.52 237.84 789.218 233.103 788.283C232.798 784.195 253.328 763.491 257.44 759.01C264.393 751.432 268.129 743.557 274.224 735.935C279.372 729.499 285.261 724.264 290.514 717.138C281.227 721.473 271.452 730.437 260.873 735.972C268.074 728.741 274.803 719.428 282.411 712.187C270.215 713.263 265.571 711.252 256.307 703.593C253.995 705.553 244.577 713.101 242.148 714.623C233.178 720.244 180.65 767.109 173.389 763.443C173.094 762.71 172.874 762.148 173.034 761.336C174.01 756.372 243.093 703.017 250.914 696.523C248.211 688.606 248.442 685.147 249.109 676.805C238.401 683.944 227.904 691.394 217.631 699.147L216.872 698.714C223.918 692.681 231.441 686.967 238.839 681.389C242.751 678.439 246.603 675.154 250.641 672.429C248.336 668.277 247.6 665.618 246.488 661.095L246.2 659.264C249.393 641.085 256.857 635.688 275.059 634.912C290.933 624.28 303.82 612.541 318.323 600.617C293.88 612.912 265.197 629.887 241.901 644.173C223.776 655.288 211.515 665.651 191.27 675.517C198.356 668.115 222.33 655.61 231.466 648.97C234.352 646.873 239.22 644.157 241.575 641.551C236.216 644.033 231.303 646.426 226.12 649.07C213.882 655.312 192.312 669.177 179.258 671.56C177.765 670.573 176.374 669.705 174.993 668.558C170.279 670.985 165.546 673.352 160.987 676.058L160.317 675.245C162.912 673.576 172.089 667.804 172.972 666.084C179.691 652.987 193.411 651.067 204.75 642.946C209.645 639.441 211.929 634.458 216.834 630.712C225.001 624.473 234.271 619.782 242.482 613.393C228.739 618.994 216.163 626.761 202.461 631.634C211.795 624.111 227.464 616.801 238.37 610.951C251.348 603.989 264.629 597.079 277.633 590.123C284.918 586.225 296.532 581.031 302.991 576.145C283.952 583.106 261.582 593.809 243.49 603.082L242.712 602.627C262.29 590.56 283.509 581.693 304.024 568.793C286.062 572.863 259.689 584.982 241.717 591.697L240.606 590.941C256.53 581.809 270.726 577.76 287.438 566.684C275.386 570.043 231.194 588.676 222.236 585.855C217.741 584.439 219.049 581.262 216.801 578.351C216.017 577.335 214.644 577.411 213.934 576.055C217.949 569.558 262.603 555.47 273.051 550.776C276.272 549.566 280.849 547.084 283.769 545.234C280.46 545.982 277.121 546.631 273.946 547.816C257.806 551.4 240.826 558.51 224.664 562.753C209.827 566.65 199.515 573.393 185.31 562.688C179.278 563.51 173.092 565.506 167.202 567.067C153.939 570.58 141.214 574.971 128.218 579.236L126.463 578.347C132.96 576.422 139.364 574.195 145.653 571.672C141.561 568.747 140.641 567.221 138.19 563.017C132.599 564.002 130.931 564.217 125.338 563.412C136.844 555.003 177.459 545.563 193.274 541.489C203.202 538.936 213.095 536.254 222.952 533.442C228.057 532.009 238.907 529.271 243.262 527.207C227.122 530.061 211.032 533.197 195 536.61C181.561 539.353 167.871 542.325 154.222 543.789C151.008 544.078 148.015 544.282 144.927 543.253C140.826 541.886 137.196 535.52 139.271 531.51C141.776 526.671 149.793 525.023 154.798 523.55L157.483 519.628C168.493 516.331 180.292 515.086 191.65 511.863C184.978 512.116 178.381 513.384 171.776 514.124C158.191 515.646 143.641 518.045 130.068 519.032C127.641 518.777 124.541 519.227 122.622 518.324C137.02 513.228 155.607 511.789 170.648 508.629C202.969 501.839 236.09 497.727 268.392 491.258C269.711 491.093 270.778 491.1 271.888 490.402C268.916 489.759 265.887 490.004 262.901 490.455C249.313 490.242 229.995 493.018 217.204 492.254C219.255 491.362 226.669 490.63 229.284 490.183C242.81 487.871 257.537 486.962 270.906 484.588C264.063 484.299 257.218 484.06 250.372 483.869C249.236 483.178 243.497 483.571 240.997 483.26L240.706 482.628C248.76 481.57 255.655 482.29 264.285 480.496C244.282 479.812 224.351 478.593 204.402 477.707C214.314 476.164 229.241 475.595 239.224 475.478L244.45 475.506C247.173 475.523 248.043 475.6 250.724 475.011C249.484 474.275 248.26 474.531 246.578 474.48L240.001 474.433C224.804 473.58 204.483 471.392 189.911 472.51L190.041 472.223C196.349 470.291 222.941 469.754 230.951 469.503C233.044 469.426 234.109 469.515 236.066 468.864C234.739 468.268 232.192 468.49 230.63 468.508L186.845 465.029C177.437 464.286 167.809 463.805 158.558 461.951C142.833 458.801 143.772 440.149 160.05 438.926C167.489 438.367 174.086 439.149 181.506 439.777C193.422 440.772 205.321 441.954 217.2 443.323C224.143 444.091 233.913 445.419 240.692 445.545L241.293 445.551C243.547 445.836 245.121 446.014 247.388 446.07C250.369 446.621 251.905 446.494 254.84 446.284L254.711 445.966L252.703 445.682L246.892 444.692C232.589 441.308 185.578 437.881 176.63 431.695C175.077 430.622 173.557 428.946 173.353 426.979C173.178 425.293 173.55 423.751 174.83 422.562C177.026 420.523 181.273 420.725 184.094 420.797C193.712 421.041 203.46 423.213 212.923 424.835C225.059 427.041 237.253 428.92 249.49 430.472C234.555 425.263 222.607 423.136 207.533 419.211C180.672 412.216 153.609 406.094 126.967 398.416C145.931 392.473 165.167 399.636 185.169 403.069C170.663 397.329 162.321 400.83 157.159 383.937C150.526 380.93 135.036 377.645 127.487 375.542C113.282 371.584 99.0554 367.458 84.8573 363.495C86.4231 357.769 88.2985 351.786 89.991 346.069C118.105 352.193 145.121 361.661 174.577 367.711C160.736 358.635 142.341 356.74 131.302 344.798C125.82 336.405 132.305 331.132 140.701 333.155C163.376 338.618 185.61 350.65 207.781 356.677C193.858 348.173 176.94 341.45 163.951 333.006C185.834 336.674 211.337 349.183 232.276 356.814C208.477 341.76 182.365 332.067 157.781 315.824C195.276 329.124 234.194 350.738 270.972 365.633C258.116 352.662 244.949 347.655 229.715 338.308C217.241 330.655 205.92 321.708 193.056 314.218C175.889 304.223 158.289 295.237 141.304 284.94C135.206 281.243 126.636 276.834 121.389 272.338C122.689 272.06 173.98 300.314 178.518 303C178.213 294.508 176.678 291.461 184.414 286.516C180.422 282.735 167.609 274.277 167.809 268.62L168.934 268.237C172.581 268.748 177.597 271.079 180.711 273.051C221.497 298.877 262.141 326.481 304.476 349.769C293.825 339.182 247.762 310.287 246.925 298.566C249.429 293.659 263.865 300.859 267.673 302.557C254.639 293.176 235.143 277.296 222.951 266.885L225.098 265.19L252.97 284.493C259.846 289.336 287.348 310.049 293.735 311.427L294.315 311.064C294.393 307.269 283.557 297.926 280.623 295.309L281.583 294.851C287.65 299.792 291.572 302.728 298.293 306.697C292.267 298.506 285.733 293.243 278.228 286.472C269.511 277.788 258.931 270.521 252.635 259.355C248.858 252.657 249.656 245.77 251.712 238.695C247.349 232.858 238.323 224.69 232.909 219.585C221.974 209.275 210.416 199.372 200.259 188.254C199.672 185.221 199.551 183.431 199.852 180.367L196.887 176.102L198.218 174.815C212.987 186.848 226.528 200.711 240.802 213.319C245.397 217.378 252.071 223.556 257.016 227.148C258.754 226.545 260.54 225.892 262.302 225.387L262.85 225.619C265.545 226.783 268.654 228.912 270.949 229.443L271.794 229.032C272.018 226.242 269.725 223.608 267.91 221.507C260.733 213.197 252.852 205.303 245.794 196.902C253.475 202.15 267.663 215.439 274.591 222.204C275.92 220.197 277.445 217.748 278.845 215.842C272.109 208.499 266.298 200.307 260.048 193.494C266.891 198.471 275.189 206.628 281.454 212.579C289.414 206.614 290.651 207.099 299.777 205.352C303.234 195.314 305.644 194.15 316.197 193.316C312.848 187.769 308.953 182.566 305.16 177.309L305.969 176.978C320.098 195.001 333.864 208.022 348.009 227.163C353.178 220.249 354.728 219.981 363.176 219.969C357.383 210.749 335.165 178.797 348.984 169.786C359.392 163 370.349 176.503 375.956 184.33C377.629 186.823 379.255 189.473 380.863 192.02L377.772 182.379C370.747 162.758 363.6 143.182 356.331 123.651C352.815 114.125 346.2 97.4162 344.176 88.1068C347.811 85.8084 351.032 84.3458 354.896 82.5163C361.535 88.94 363.834 95.8713 366.933 104.28C368.548 107.994 369.911 110.845 371.792 114.429C370.557 110.041 369.729 106.867 368.899 102.404C367.656 97.281 366.605 92.1558 366.23 86.884C376.76 106.148 383.772 130.213 393.788 150.348C391.939 141.553 386.618 124.399 392.041 116.203C393.468 114.045 395.948 112.453 398.523 112.112C400.869 111.802 403.09 112.573 404.929 114.017C416.739 123.286 428.419 179.101 435.238 195.208C435.747 196.869 435.837 197.239 436.644 198.839C437.167 197.199 436.789 196.109 436.576 194.268C435.512 186.857 433.879 179.255 432.744 171.683C433.283 169.589 432.762 170.424 434.214 169C438.078 177.548 444.638 193.782 449.44 201.125ZM792.734 279.342C783.086 277.351 781.77 275.216 776.286 267.034C773.252 273.098 772.758 278.517 774.881 285.029C777.337 292.709 782.834 299.046 790.09 302.562C795.168 304.979 798.136 305.104 803.462 305.139C810.98 303.771 812.996 302.581 818.313 296.758C816.775 299.749 815.404 302.352 813.689 305.244C817.119 306.869 819.459 308.189 823.676 308.694C837.641 310.367 848.481 296.426 844.245 283.296C843.446 280.822 840.112 278.541 839.093 275.242C841.642 273.682 841.494 274.154 842.112 271.408C843.425 265.565 842.825 259.418 839.479 254.329C833.099 244.622 823.427 241.814 812.634 242.375C806.503 236.229 801.99 233.083 792.864 233.116C779.171 235.51 770.616 245.835 775.416 259.818C778.273 253.832 778.816 252.267 783.424 247.556C776.699 262.535 780.072 270.132 792.734 279.342ZM679.391 705.877C677.205 706.691 678.255 706.652 676.147 706.244C675.736 705.813 672.053 700.223 671.504 699.401C676.343 711.35 684.28 723.244 688.228 733.803C695.901 724.064 703.561 720.141 715.586 717.918C704.437 705.225 694.088 690.933 682.694 678.282C677.219 672.204 672.537 665.784 666.674 659.938C675.22 674.075 680.782 682.717 688.842 697.569C680.603 689.928 672.439 676.063 664.734 667.385C662.124 664.446 659.679 659.829 656.958 656.523L656.507 656.749C656.792 657.578 662.154 666.735 663.294 668.982L661.942 669.981C659.696 667.221 657.395 664.461 655.295 661.594L655.008 662.031C658.492 667.917 662.212 675.508 665.714 681.8C669.847 689.222 675.911 698.661 679.391 705.877ZM712.016 338.459C722.529 331.217 739.735 318.608 750.312 312.686L756.494 308.869C751.154 313.5 750.194 316.916 746.862 319.974C742.196 324.257 735.955 329.239 731.009 333.537C748.552 325.474 762.751 312.65 783.485 305.548C776.099 299.892 771.96 295.634 769.324 286.566C769.063 285.67 767.69 281.424 767.347 280.958C759.518 288.491 749.483 300.464 741.297 308.899C734.63 315.709 727.93 322.485 721.196 329.228C718.687 331.744 714.23 335.908 712.016 338.459ZM735.498 608.35C740.647 608.462 744.604 608.222 748.828 604.345C755.28 598.423 750.572 586.226 745.363 581.047C743.367 579.063 740.536 579.042 737.751 579.066C735.763 579.627 733.212 580.479 732.023 582.285C732.504 583.475 732.72 583.523 733.653 584.449L733.081 584.913L732.432 584.842C726.865 584.288 723.49 588.609 723.066 593.805C722.797 596.856 723.777 599.885 725.781 602.201C729.252 606.191 732.364 604.232 735.271 608.191C735.347 608.244 735.423 608.297 735.498 608.35ZM316.71 645.496C322.75 652.091 324.92 656.166 327.373 664.845C338.652 652.21 356.432 632.927 366.602 619.727C357.351 627.597 346.954 636.678 337.125 643.836C341.942 635.681 344.911 634.421 349.31 628.514C351.697 626.204 354.7 622.741 357.008 620.226C355.326 621.292 350.054 624.468 348.988 625.876L346.815 625.421C348.545 624.432 353.757 618.364 355.402 616.476L346.213 623.077C337.05 629.371 325.725 638.593 316.71 645.496ZM416.036 154C413.836 145.613 412.841 138.689 407.296 131.938C408.503 137.358 411.625 150.976 413.613 155.911C415.009 161.154 420.371 179.435 422.671 184.231C423.505 182.205 417.105 158.159 416.036 154ZM333.676 302.973L330.131 296.328C328.694 293.525 326.83 289.631 325.191 287.064C329.04 289.659 332.904 292.23 336.784 294.778C333.116 288.521 330.523 284.431 326.548 278.467C322.89 281.006 320.215 282.828 316.35 284.988L328.371 297.676L333.676 302.973ZM523.927 715.485C533.203 707.958 526.528 699.892 524.63 690.215C523.934 686.666 522.858 678.012 521.489 675.227C520.977 679.847 520.593 684.572 520.018 689.164C518.813 698.779 510.586 711.019 523.927 715.485ZM301.129 639.088C303.252 637.689 307.543 634.991 308.714 632.831L308.411 632.544C305.747 634.266 303.184 635.747 300.894 637.933L300.751 638.739L301.129 639.088ZM521.028 181.617C521.343 172.099 521.161 160.198 523.859 151.229C525.987 144.155 527.044 131.208 515.693 132.924C507.214 142.893 514.303 149.766 516.867 160.293C518.333 166.314 518.033 175.956 520.403 181.423L521.028 181.617ZM338.863 600.004C324.053 608.308 309.905 619.615 295.172 628.251C292.945 629.557 284.183 634.917 282.621 636.484C282.942 637.87 283.145 637.595 284.672 638.687C289.647 639.766 291.761 638.575 296.054 635.835C302.288 631.856 336.74 604.515 339.231 600.521L338.863 600.004ZM456.274 622.503C453.073 623.769 451.017 624.424 449.705 627.826C447.973 632.313 445.373 639.984 447.481 644.558C451.844 654.025 460.698 650.898 467.724 648.013C473.726 644.425 478.287 634.019 470.833 628.898C469.41 627.92 466.508 630.987 463.137 628.707C464.628 627.77 465.538 627.585 466.143 626.268C465.611 625.017 464.55 624.452 463.303 623.937C461.069 623.028 458.686 622.542 456.274 622.503Z"/><defs><linearGradient id="gradient_0" gradientUnits="userSpaceOnUse" x1="641.20563" y1="614.65533" x2="386.11526" y2="261.89236"><stop offset="0" stop-color="#E96935"/><stop offset="1" stop-color="#FBE62D"/></linearGradient></defs><path fill="url(#gradient_0)" transform="translate(0.000244141 1.52588e-05)" d="M470.762 242.249C469.614 239.988 466.857 234.996 466.673 232.713C465.401 216.925 483.445 207.777 496.745 206.209C507.784 204.908 514.274 208.353 522.357 214.765C539.29 203.692 554.086 205.437 561.538 226.045C570.661 225.1 576.308 229.341 578.958 238.059C583.877 254.249 573.319 267.805 566.82 280.949C568.927 285.768 569.96 288.578 570.732 293.771C583.508 285.565 593.833 284.365 606.819 293.093C612.288 285.027 618.446 282.817 627.034 279.091C614.273 279.065 599.449 279.67 592.078 266.759C586.054 256.206 590.037 240.929 601.236 235.58C609.402 231.679 617.689 232.957 625.836 235.872C636.658 230.879 643.962 226.312 655.825 232.297C665.988 237.424 682.75 249.541 686.922 260.422C690.709 270.3 686.467 280.517 681.988 289.26C690.291 293.014 698.216 298.548 701.397 307.413C705.42 318.625 701.505 327.081 697.068 336.993C699.343 341.001 702.278 348.435 699.186 352.636C694.229 354.95 688.466 348.778 683.379 347.297C679.932 346.294 678.192 346.174 674.753 345.938C673.049 345.998 669.999 346.016 668.426 346.293C682.437 351.205 692.383 355.51 687.76 372.453C696.509 366.935 703.794 363.855 714.526 366.221C723.481 368.194 731.625 374.386 736.622 382.001C739.184 385.906 739.837 391.96 741.553 395.067C747.292 405.457 754.611 411.977 751.172 425.131C749.363 432.049 744.41 436.795 740.505 443.032C740.715 456.917 741.258 458.059 735.999 470.754C750.325 472.682 754.841 481.941 753.096 495.667C752 504.283 747.658 506.907 742.926 513.312C746.079 521.875 748.8 530.088 744.233 538.938C741.44 545.262 737.358 547.382 731.747 551.191C731.076 561.812 728.867 570.181 720.593 577.585C712.001 585.275 703.321 583.173 693.027 583.751C688.826 583.987 684.56 585.084 680.37 585.825C672.821 587.929 662.428 583.004 662.696 574.673C663.307 573.446 664.046 572.333 665.451 572.017C674.773 569.921 681.88 571.032 689.843 564.614C667.819 567.834 663.485 566.607 644.254 555.733C636.067 562.58 630.719 566.52 619.291 567.89C596.005 570.681 578.593 546.978 593.869 527.001C599.965 519.028 614.301 519.132 624.075 518.884C612.921 513.978 603.347 510.387 603.682 496.076L602.197 495.326C597.625 509.679 587.988 518.156 571.936 512.197C562.679 508.761 557.439 500.19 553.651 491.468C552.229 494.301 553.2 496.003 552.978 499.557C555.249 523.228 593.319 524.401 565.458 558.219L563.377 560.726C567.878 558.878 573.686 556.301 578.251 554.998C591.053 567 592.109 577.463 611.555 577.063C627.695 576.731 632.152 572.315 645.538 569.13C655.691 574.782 651.66 578.44 654.962 588.311C655.521 589.983 658.304 592.834 659.243 594.551C666.018 602.54 664.386 612.336 656.501 619.008C652.932 622.028 649.37 623.011 645.147 624.677C642.324 628.561 639.826 632.725 636.155 635.891C626.914 643.86 615.593 643.343 604.508 640.4C597.521 643.757 592.702 644.695 585.041 641.944C579.003 639.776 566.141 631.47 565.951 624.649L566.468 623.708C570.524 623.551 578.335 636.349 598.947 632.83C601.527 632.389 604.716 631.985 607.128 631.006C601.491 629.5 577.546 626.33 581.97 615.783C582.831 613.731 586.282 609.59 587.783 607.575C593.134 600.386 596.09 592.941 598.088 584.267C578.614 611.675 573.505 607.061 543.197 611.684C534.879 622.641 526.794 629.732 512.295 629.786C499.468 629.833 492.414 624.17 483.675 615.505C478.548 617.384 474.736 618.236 469.267 616.509C457.43 612.705 447.519 598.566 451.524 586.085C454.578 575.436 466.572 572.601 475.683 577.597C483.897 582.101 490.533 585.911 499.541 589.066C492.238 581.324 484.06 570.325 488.529 558.459C492.107 548.958 498.486 551.924 505.783 549.08C514.023 545.869 518.372 537.962 521.528 530.055C507.443 542.67 495.363 547.542 484.628 528.104C479.535 530.145 472.923 532.236 467.519 530.782C452.553 526.757 449.117 508.271 452.825 495.252C456.844 481.142 466.61 478.4 478.055 472.136C465.21 472.642 456.252 473.248 444.338 478.813C439.971 480.854 433.395 483.97 428.92 485.21C420.601 487.516 410.912 478.989 403.564 474.465C409.201 484.054 416.28 497.002 416.033 508.355C415.706 523.37 412.035 521.805 418.726 536.317C419.985 532.541 423.075 522.856 427.078 521.74C429.283 522.699 429.503 526.723 430.403 529.733C434.801 544.457 437.957 549.372 447.047 561.129C432.976 576.386 417.93 572.108 406.14 557.271C402.918 560.68 399.411 562.94 394.521 564.335C387.444 566.353 370.041 565.232 367.896 556.22C367.418 554.211 368.704 553.129 369.878 551.595C360.009 546.236 357.557 543.755 351.122 534.438C351.128 544.439 351.946 552.078 339.67 546.076C346.025 563.377 330.242 560.969 319.143 558.472C333.127 572.604 343.494 567.651 358.433 573.849C365.52 576.789 376.626 588.823 387.794 591.418C397.472 593.668 404.291 593.009 414.071 593.09C403.775 598.799 396.084 600.368 384.502 601.289L393.622 605.576C381.416 610.497 370.478 612.045 358.304 605.74C352.338 602.651 348.263 597.574 343.81 592.695C315.572 590.759 306.321 580.154 310.204 552.081C302.163 547.422 296.195 542.367 292.806 533.529C288.348 521.905 291.687 513.676 296.463 503.123C280.126 492.22 278.519 482.015 285.36 464.396C283.138 457.536 277.145 450.364 277.475 443.945C277.934 435.007 282.483 421.741 289.099 415.427C298.645 406.317 309.348 406.416 321.349 406.511C324.691 384.934 328.131 383.765 346.005 372.463C344.949 351.572 364.728 343.072 382.241 352.347C385.161 353.893 387.028 355.058 390.321 354.552C395.585 350.805 387.743 341.019 391.819 334.887C396.607 327.683 412.145 323.475 414.836 316.17L414.515 315.62C397.586 318.836 398.468 328.48 380.39 313.377C380.525 316.878 380.782 320.508 380.983 324.018C377.633 328.457 373.197 331.892 367.59 332.359C351.277 333.716 349.635 319.168 348.64 307.754C342.027 321.553 344.844 332.841 349.413 346.43C334.686 337.401 328.123 318.834 339.517 303.29C341.082 301.118 348.653 295.628 349.591 293.625C354.194 283.789 358.854 278.881 369.552 275.235C381.654 271.111 391.422 277.178 402.039 282.852C411.136 276.698 422.386 269.8 433.738 271.034C449.611 272.759 452.873 282.088 451.328 295.8C456.003 288.456 460.01 282.712 469.052 281.338C471.097 281.027 473.485 280.34 475.12 279.033C472.332 272.842 452.516 273.114 448.541 264.906C444.632 256.835 445.737 248.224 453.956 243.435C460.278 239.751 464.226 240.493 470.762 242.249Z"/><path fill="#EA6833" transform="translate(0.000244141 1.52588e-05)" d="M659.243 594.551C666.018 602.54 664.386 612.336 656.501 619.008C652.932 622.028 649.37 623.011 645.147 624.677C642.324 628.561 639.826 632.725 636.155 635.891C626.914 643.86 615.593 643.343 604.508 640.4C597.521 643.757 592.702 644.695 585.041 641.944C579.003 639.776 566.141 631.47 565.951 624.649L566.468 623.708C570.524 623.551 578.335 636.349 598.947 632.83C601.527 632.389 604.716 631.985 607.128 631.006C608.074 629.294 607.902 628.96 609.327 628.067C615.41 631.316 612.48 622.786 619.039 619.357L619.656 619.809C625.773 613.643 634.438 609.459 641.022 603.739C640.169 604.48 646.336 602.403 647.12 601.903C649.336 600.491 649.205 599.446 651.104 597.985C654.659 598.033 654.999 600.332 658.63 598.326C659.712 596.448 659.384 597.072 659.243 594.551Z"/><path fill="#EA6833" transform="translate(0.000244141 1.52588e-05)" d="M680.37 585.825L680.156 584.948C681.687 583.842 683.242 582.768 684.819 581.728L685.025 581.256L685.965 581.183C687.727 572.805 696.323 571.274 698.7 566.477C700.99 559.02 708.617 556.404 714.472 552.008C720.12 547.768 718.215 552.137 722.24 550.692C724.343 549.937 730.196 546.764 731.817 547.175L731.786 548.853L732.298 549.089C734.284 547.346 742.496 539.956 744.233 538.938C741.44 545.262 737.358 547.382 731.747 551.191C731.076 561.812 728.867 570.181 720.593 577.585C712.001 585.275 703.321 583.173 693.027 583.751C688.826 583.987 684.56 585.084 680.37 585.825Z"/><path fill="#402612" transform="translate(0.000244141 1.52588e-05)" d="M552.978 499.557C552.346 497.095 552.428 492.68 552.692 490.15L553.112 489.987L553.651 491.468C552.229 494.301 553.2 496.003 552.978 499.557Z"/><path fill="#4E3B16" transform="translate(0.000244141 1.52588e-05)" d="M668.426 346.293L667.459 345.838C668.897 345.009 673.014 345.674 674.753 345.938C673.049 345.998 669.999 346.016 668.426 346.293Z"/><path fill="#402612" transform="translate(0.000244141 1.52588e-05)" d="M602.197 495.326L602.995 493.799C603.844 494.525 603.466 494.361 603.682 496.076L602.197 495.326Z"/><path fill="#202020" transform="translate(0.000244141 1.52588e-05)" d="M412.81 370.049L414.283 370.994C414.804 387.089 417.883 402.363 438.055 401.327C442.381 401.105 447.066 400.56 451.353 400.414C440.794 410.026 425.596 414.085 425.283 428.133C424.976 441.894 431.428 449.874 440.432 459.286L440.84 459.709C429.048 455.754 421.735 450.917 415.265 440.284C411.864 434.697 410.075 431.38 403.345 434.622C385.729 443.109 386.801 459.539 387.397 476.139C379.342 480.348 367.856 485.757 362.119 493.311C359.526 496.725 358.079 504.785 354.988 507.784C352.585 510.115 347.613 508.807 344.723 507.969C334.201 504.922 326.479 498.309 317.345 492.654C314.012 490.591 309.509 488.592 305.819 487.044C320.578 482.403 323.46 481.266 323.154 464.963C330.945 472.835 333.467 476.002 345.124 476.709C335.704 458.48 335.459 453.911 340.477 434.583C335.238 421.261 333.447 419.611 335.275 404.362L336.642 402.481C343.356 433.153 352.16 439.815 383.213 441.555C385.34 437.856 394.567 423.669 394.64 421.174C395.082 406.008 395.756 406.691 408.363 396.435C410.091 385.448 408.664 381.761 412.81 370.049Z"/><path fill="#202020" transform="translate(0.000244141 1.52588e-05)" d="M537.052 390.211L542.604 389.999C532.169 410.711 533.658 411.595 545.37 431.257C532.512 424.859 524.238 421.729 513.082 433.479C511.761 435.271 510.382 437.667 509.189 439.6L508.937 432.66C504.201 424.967 495.704 418.514 497.498 408.293C498.756 401.127 504.446 396.199 510.006 392.152C518.91 391.236 528.098 390.764 537.052 390.211Z"/><path fill="#202020" transform="translate(0.000244141 1.52588e-05)" d="M539.765 281.69C541.183 281.508 542.153 281.219 543.458 281.749C541.184 286.816 516.38 287.64 528.577 312.202C523.749 310.233 520.575 309.21 515.146 310.382C509.854 311.518 505.255 314.767 502.417 319.376C497.858 326.916 500.149 332.23 502.18 339.898C501.967 340.78 502.203 340.371 501.29 341.003C492.694 339.14 489.172 325.537 492.332 318.022C494.25 309.051 507.901 306.85 512.045 301.922C522.575 289.399 520.042 283.826 539.765 281.69Z"/><path fill="#202020" transform="translate(0.000244141 1.52588e-05)" d="M641.517 374.264C643.542 376.069 645.39 380.963 646.92 382.838C648.778 385.116 658.271 385.269 661.135 385.431C656.348 391.376 655.688 393.702 653.599 400.969L648.949 397.418C642.241 392.284 634.272 391.333 626.182 390.027C631.217 385.939 633.994 385.117 639.867 382.663C640.396 379.859 640.947 377.06 641.517 374.264Z"/><path fill="#202020" transform="translate(0.000244141 1.52588e-05)" d="M646.702 460.091C654 459.8 660.016 461.593 660.914 470.051C661.181 472.565 660.887 476.338 658.94 478.185C657.713 478.112 652.293 474.347 650.457 473.304C643.089 471.154 638.456 472.245 631.379 474.132C635.516 466.129 638.4 463.351 646.702 460.091Z"/><path fill="#202020" transform="translate(0.000244141 1.52588e-05)" d="M614.977 305.689C622.206 307.798 624.155 321.524 627.919 326.942C630.086 330.06 634.058 332.537 637.225 334.766C633.616 334.264 631.453 334.113 627.804 334.002C621.841 334.954 617.654 336.023 611.823 337.518C621.125 323.631 619.714 320.697 614.977 305.689Z"/><path fill="#202020" transform="translate(0.000244141 1.52588e-05)" d="M455.677 336.564C459.708 336.288 472.341 339.378 477.427 340.322C471.115 343.293 469.959 343.705 466.657 349.703C458.815 343.838 455.428 344.24 446.46 346.876L446.834 346.036C449.221 340.593 450.481 339.34 455.677 336.564Z"/><path fill="#4E3B16" transform="translate(0.000244141 1.52588e-05)" d="M412.81 370.049L413.4 368.727C414.308 369.594 413.926 369.34 414.283 370.994L412.81 370.049Z"/><path fill="#4E3B16" transform="translate(0.000244141 1.52588e-05)" d="M335.275 404.362C335.514 402.664 335.361 402.293 336.2 400.895L336.642 402.481L335.275 404.362Z"/><path fill="#FEFEFE" transform="translate(0.000244141 1.52588e-05)" d="M716.639 724.147C725.525 723.048 731.207 726.142 738.005 731.071C727.126 734.035 725.162 736.01 719.347 745.414C733.252 734.055 741.673 733.391 755.779 744.875C752.685 738.316 751.087 736.797 745.748 732.191C751.922 732.449 756.278 733.245 761.285 737.402C765.806 741.11 768.613 746.507 769.054 752.337C769.539 758.427 767.01 766.923 762.329 771.22C759.672 773.66 756.246 774.572 753.544 777.76C753.134 781.517 752.926 782.238 751.663 785.78C744.931 801.068 724.448 809.789 712.106 796.099C708.918 795.851 704.429 798.691 701.062 798.764C695.72 798.88 689.259 796.063 685.501 792.448C681.64 788.724 679.442 783.601 679.404 778.237C679.321 770.736 682.737 766.216 687.57 761.186C690.223 763.575 691.151 764.301 694.172 766.189C680.53 747.317 696.505 727.424 716.639 724.147Z"/><path fill="#FEFEFE" transform="translate(0.000244141 1.52588e-05)" d="M278.833 232.091C281.397 226.265 283.39 221.462 288.733 217.438C293.52 213.775 299.591 212.217 305.551 213.12C312.753 214.172 314.744 215.685 318.796 221.057C321.478 221.06 325.178 219.948 327.884 219.284C328.894 219.576 329.892 219.91 330.874 220.286C341.902 224.439 348.236 233.663 343.333 245.415C341.831 249.015 339.903 252.65 336.111 254.187C334.58 253.786 334.509 253.088 333.265 251.528L332.242 253.369C337.284 279.055 305.317 291.759 287.827 274.315C297.977 272.499 299.638 271.947 306.054 263.718C292.23 272.291 285.315 272.264 273.297 260.499C276.083 266.776 277.204 267.963 281.89 273.164C280.136 272.759 278.121 272.27 276.422 271.721C271.278 270.035 267.04 266.329 264.683 261.456C262.393 256.547 262.196 250.917 264.139 245.861C266.949 238.369 272.069 235.14 278.833 232.091Z"/><path fill="#272426" transform="translate(0.000244141 1.52588e-05)" d="M332.242 253.369C331.54 251.838 331.405 251.617 330.999 249.921C332.01 249.908 332.259 250.558 333.265 251.528L332.242 253.369Z"/><path fill="#FEFEFE" transform="translate(0.000244141 1.52588e-05)" d="M268.82 641.077C275.033 640.668 277.712 641.754 283.091 644.34C281.618 647.011 280.89 648.781 279.736 651.591C301.824 631.442 328.47 655.513 319.697 680.746C313.294 672.341 312.415 671.369 302.368 668.469C314.802 677.711 319.412 684.414 312.467 699.587C315.107 697.118 315.907 696.441 317.949 693.42L320.534 687.79C326.934 712.028 301.727 722.804 284.543 705.273C268.54 705.51 255.867 699.64 255.43 681.402C255.352 678.14 256.685 676.404 258.126 673.58C258.032 671.465 255.399 668.681 254.684 666.496C250.228 652.891 256.644 645.461 268.82 641.077Z"/><path fill="#EBEAEB" fill-opacity="0.0078431377" transform="translate(0.000244141 1.52588e-05)" d="M663.294 668.982C662.154 666.735 656.792 657.578 656.507 656.749L656.958 656.523C659.679 659.829 662.124 664.446 664.734 667.385C672.439 676.063 680.603 689.928 688.842 697.569C680.782 682.717 675.22 674.075 666.674 659.938C672.537 665.784 677.219 672.204 682.694 678.282C694.088 690.933 704.437 705.225 715.586 717.918C703.561 720.141 695.901 724.064 688.228 733.803C684.28 723.244 676.343 711.35 671.504 699.401C672.053 700.223 675.736 705.813 676.147 706.244C678.703 710.424 684.142 717.133 687.232 721.15C684.55 716.094 681.936 711.003 679.391 705.877C675.911 698.661 669.847 689.222 665.714 681.8C662.212 675.508 658.492 667.917 655.008 662.031L655.295 661.594C657.395 664.461 659.696 667.221 661.942 669.981L665.874 675.242L666.367 674.987L666.773 676.084C666.378 674.151 664.332 670.85 663.294 668.982Z"/><path fill="#FEFEFE" transform="translate(0.000244141 1.52588e-05)" d="M267.037 379.081C268.737 378.886 270.258 378.63 271.791 379.432C274.715 381.129 280.079 382.016 282.788 383.783C286.997 386.527 288.149 394.333 285.23 398.363C282.662 401.908 279.152 399.057 276.959 401.991C278.796 403.251 278.298 402.45 278.969 404.164L277.983 405.476C272.962 408.337 265.031 411 262.173 403.782C257.606 392.246 252.955 385.297 267.037 379.081Z"/><path fill="#F3A334" transform="translate(0.000244141 1.52588e-05)" d="M445.647 488.266L447.013 489.003C448.292 491.412 444.002 508.449 444.356 514.732C444.815 522.872 452.935 534.632 452.672 537.609C451.002 537.62 451.241 537.35 449.54 536.115C440.166 526.806 433.072 511.399 438.274 498.443C440.069 493.971 442.369 491.535 445.647 488.266Z"/><path fill="#9F9FA1" fill-opacity="0.011764706" transform="translate(0.000244141 1.52588e-05)" d="M407.296 131.938C412.841 138.689 413.836 145.613 416.036 154L415.235 155.052L414.2 154.956L413.613 155.911C411.625 150.976 408.503 137.358 407.296 131.938Z"/><path fill="#0F0E0F" fill-opacity="0.98823529" transform="translate(0.000244141 1.52588e-05)" d="M679.391 705.877C681.936 711.003 684.55 716.094 687.232 721.15C684.142 717.133 678.703 710.424 676.147 706.244C678.255 706.652 677.205 706.691 679.391 705.877Z"/><path fill="#EBEAEB" fill-opacity="0.011764706" transform="translate(0.000244141 1.52588e-05)" d="M355.402 616.476C353.757 618.364 348.545 624.432 346.815 625.421L346.17 624.844L346.213 623.077L355.402 616.476Z"/><path fill="#FEFEFE" fill-opacity="0.011764706" transform="translate(0.000244141 1.52588e-05)" d="M348.988 625.876C350.054 624.468 355.326 621.292 357.008 620.226C354.7 622.741 351.697 626.204 349.31 628.514L348.917 627.817C349.093 626.536 349.067 627.183 348.988 625.876Z"/><path fill="#FEFEFE" fill-opacity="0.054901961" transform="translate(0.000244141 1.52588e-05)" d="M308.411 632.544L308.714 632.831C307.543 634.991 303.252 637.689 301.129 639.088L300.751 638.739L300.894 637.933C303.184 635.747 305.747 634.266 308.411 632.544Z"/><path fill="#EBEAEB" transform="translate(0.000244141 1.52588e-05)" d="M337.474 266.457C339.482 268.51 340.686 269.981 341.585 272.704C338.852 271.07 337.062 269.99 337.474 266.457Z"/><path fill="#202020" fill-opacity="0.94901961" transform="translate(0.000244141 1.52588e-05)" d="M661.942 669.981L663.294 668.982C664.332 670.85 666.378 674.151 666.773 676.084L666.367 674.987L665.874 675.242L661.942 669.981Z"/><path fill="#FEFEFE" fill-opacity="0.011764706" transform="translate(0.000244141 1.52588e-05)" d="M330.131 296.328L333.676 302.973L328.371 297.676L330.131 296.328Z"/><path fill="#202020" transform="translate(0.000244141 1.52588e-05)" d="M391.379 829.509C392.598 830.994 388.133 847.856 388.043 851.028C387.805 859.502 391.19 866.598 392.309 874.894L392.422 875.77C385.68 892.402 385.93 902.063 367.318 909.812C366.562 909.735 365.765 909.531 365.009 909.371C361.67 906.795 362.638 901.254 362.249 897.423C360.395 879.172 371.012 864.348 380.471 849.857C384.733 843.328 388.176 836.675 391.379 829.509Z"/><path fill="#202020" transform="translate(0.000244141 1.52588e-05)" d="M875.724 616.57C887.745 619.807 896.779 625.689 907.947 629.895C923.013 635.569 925.07 629.664 936.337 643.904L932.73 650.863L931.839 652.461C924.118 658.391 895.956 631.936 889.621 626.794C885.401 623.369 879.689 620.054 875.724 616.57Z"/><path fill="#202020" transform="translate(0.000244141 1.52588e-05)" d="M68.9669 493.544C72.969 493.985 80.5982 493.749 84.8746 493.821C96.8982 494.024 110.149 494.234 122.004 496.36C118.836 497.297 115.536 498.414 112.375 499.428C95.9957 505.407 87.2645 508.984 69.4967 508.883C68.9105 504.41 68.8806 498.063 68.9669 493.544Z"/><path fill="#202020" transform="translate(0.000244141 1.52588e-05)" d="M652.595 70.588C657.22 71.659 664.182 74.0101 668.512 75.6917C665.881 82.7964 657.727 96.1638 653.971 104.333C652.022 108.31 650.407 112.412 648.732 116.51C652.581 97.5685 653.888 90.1539 652.595 70.588Z"/><path fill="#202020" transform="translate(0.000244141 1.52588e-05)" d="M746.035 115.686C749.365 117.633 753.733 120.788 756.605 123.368C753.041 128.573 742.774 139.193 738.075 144.195C736.428 145.871 734.134 148.741 732.547 150.621C739.464 137.829 740.813 127.928 746.035 115.686Z"/><path fill="#0F0E0F" transform="translate(0.000244141 1.52588e-05)" d="M444.633 64.1912C446.316 68.1174 448.071 74.6219 448.897 78.7644C452.658 97.6224 455.667 117.138 459.163 136.003C459.678 138.784 464.762 166.738 464.707 167.925L463.915 167.615C462.511 161.551 461.455 154.489 460.116 148.051L459.865 148.25C459.885 153.171 461.28 161.654 462.011 166.706L461.371 167.395C460.487 163.979 459.607 156.382 459.064 152.656C457.797 143.872 456.448 135.101 455.017 126.343C451.757 106.231 446.975 84.0918 444.633 64.1912Z"/><path fill="#202020" transform="translate(0.000244141 1.52588e-05)" d="M118.838 631.7C120.496 631.353 122.303 631.273 123.701 632.225C123.823 635.311 118.375 638.449 116.004 639.882C112.298 642.122 109.146 642.518 104.951 642.895C102.974 642.771 102.247 642.683 100.312 642.279C99.686 641.757 99.1938 641.617 99.1156 640.826C98.4107 633.697 114.562 632.262 118.838 631.7Z"/><path fill="#6B6B6D" fill-opacity="0.015686275" transform="translate(0.000244141 1.52588e-05)" d="M387.13 702.838C393.299 692.467 399.526 681.706 406.282 671.76C407.58 669.85 409.914 665.455 411.191 663.975C411.538 666.629 393.634 700.125 391.164 705.137L390.101 704.676C389.842 703.81 389.894 703.493 389.897 702.588C388.302 702.068 389.122 702.222 387.13 702.838Z"/><path fill="#EBEAEB" fill-opacity="0.019607844" transform="translate(0.000244141 1.52588e-05)" d="M702.12 276.559C703.694 273.651 713.217 262.835 715.615 260.066C716.186 263.194 715.425 264.338 712.596 266.173C710.695 267.101 709.779 268.42 709.258 270.447L709.739 270.434C710.662 269.398 711.048 268.94 711.833 267.802C718.47 268.472 714.888 265.898 719.245 264.764L719.962 265.725C719.711 267.017 718.805 267.74 717.885 268.746L717.792 269.808C712.94 275.012 702.607 283.303 696.836 288.145C699.312 284.324 701.071 281.607 703.931 278.108C705.989 275.909 708.212 272.875 710.091 270.443C707.261 272.832 705.15 274.418 702.12 276.559Z"/><path fill="#0F0E0F" transform="translate(0.000244141 1.52588e-05)" d="M306.992 116.831C313.151 121.673 320.939 140.588 323.748 148.169C323.542 148.012 323.335 147.854 323.128 147.696C314.688 138.093 307.649 129.715 306.992 116.831Z"/><path fill="#EBEAEB" fill-opacity="0.015686275" transform="translate(0.000244141 1.52588e-05)" d="M314.12 729.725C316.398 726.759 344.367 696.502 345.724 695.795C337.001 707.615 326.534 719.258 318.59 731.481C318.393 730.123 318.401 730.221 317.565 729.12C315.732 728.705 316.227 728.882 314.12 729.725Z"/><path fill="#EBEAEB" fill-opacity="0.011764706" transform="translate(0.000244141 1.52588e-05)" d="M800.336 363.042C812.391 355.664 823.563 351.123 836.453 345.54C836.369 347.394 835.993 348.314 835.917 349.596C825.702 354.128 810.809 359.66 800.336 363.042Z"/><path fill="#0F0E0F" fill-opacity="0.98823529" transform="translate(0.000244141 1.52588e-05)" d="M613.744 195.425C616.856 188.044 628.138 155.053 631.055 151.386C629.138 161.941 617.867 187.236 617.869 198.361C617.545 197.896 616.696 197.203 616.234 196.784C617.509 193.864 617.735 190.846 618.169 187.682C617.094 190.069 616.198 193.41 615.416 195.974L613.744 195.425Z"/><path fill="#EBEAEB" fill-opacity="0.0078431377" transform="translate(0.000244141 1.52588e-05)" d="M278.228 286.472C285.733 293.243 292.267 298.506 298.293 306.697C291.572 302.728 287.65 299.792 281.583 294.851L276.32 290.412C277.07 289.059 277.596 287.871 278.228 286.472Z"/><path fill="#0F0E0F" transform="translate(0.000244141 1.52588e-05)" d="M477.732 681.47L477.753 680.775C478.7 679.088 479.983 678.751 481.768 677.891C480.723 684.102 475.391 721.086 473.97 723.896C471.8 721.297 480.113 687.552 477.732 681.47Z"/><path fill="#0F0E0F" fill-opacity="0.97647059" transform="translate(0.000244141 1.52588e-05)" d="M305.16 177.309C304.392 176.578 298.758 169.419 298.169 168.393C294.861 162.629 278.083 145.928 277.482 140.682C281.752 141.996 301.75 171.205 305.969 176.978L305.16 177.309Z"/><path fill="#0F0E0F" transform="translate(0.000244141 1.52588e-05)" d="M469.794 705.066L470.287 705.916C470.341 708.93 469.201 711.004 469.621 712.954L470.168 713.239C470.428 710.533 471.208 703.72 473.187 702.04C471.271 714.796 468.33 726.398 465.743 738.924L464.79 737.339C466.164 725.295 467.482 717.033 469.794 705.066Z"/><path fill="#0F0E0F" transform="translate(0.000244141 1.52588e-05)" d="M573.304 902.137C579.673 904.407 579.993 909.832 578.473 915.693C573.242 913.07 573.137 907.339 573.304 902.137Z"/><path fill="#0F0E0F" transform="translate(0.000244141 1.52588e-05)" d="M110.424 293.858C112.708 295.898 116.772 299.167 118.068 301.729L117.822 302.408L115.924 302.458C112.627 302.057 110.118 301.928 106.795 301.8C108.029 298.484 108.747 296.986 110.424 293.858Z"/><path fill="#6B6B6D" fill-opacity="0.015686275" transform="translate(0.000244141 1.52588e-05)" d="M450.862 170.523C453.322 167.055 449.756 158.1 452.485 154.947L453.583 155.019C455.733 157.214 455.593 160.03 454.281 162.55C453.979 161.054 453.831 159.549 453.022 158.296C452.691 159.909 454.126 173.992 454.273 176.632L453.798 177.132C452.431 175.096 451.732 172.833 450.862 170.523Z"/><path fill="#0F0E0F" transform="translate(0.000244141 1.52588e-05)" d="M943.392 425.18C945.304 425.048 947.781 424.503 948.926 426.223C947.53 428.568 944.69 428.98 942.125 429.646C940.097 429.732 937.437 430.101 935.861 428.861L935.906 427.982C938.399 425.798 940.081 425.686 943.392 425.18Z"/><path fill="#EBEAEB" fill-opacity="0.011764706" transform="translate(0.000244141 1.52588e-05)" d="M568.613 710.939C566.957 705.022 564.968 691.668 563.815 685.091C565.222 686.616 569.86 705.046 570.911 708.643C569.748 709.451 569.131 709.66 568.613 710.939Z"/><path fill="#272426" transform="translate(0.000244141 1.52588e-05)" d="M91.9168 397.434C99.0139 397.355 100.78 397.648 107.613 399.553L107.084 402.026C100.826 401.648 97.2605 400.419 91.9168 397.434Z"/><path fill="#0F0E0F" fill-opacity="0.93725491" transform="translate(0.000244141 1.52588e-05)" d="M542.706 91.1123C543.184 83.6247 543.275 65.1135 544.754 58.9857C545.636 68.9346 544.017 81.5028 543.971 91.6684L543.802 92.0877L543.186 92.3231L542.706 91.1123Z"/><path fill="#FEFEFE" fill-opacity="0.015686275" transform="translate(0.000244141 1.52588e-05)" d="M778.038 342.317L780.727 342.198C780.125 342.92 779.836 343.23 779.193 343.891L779.035 344.741C777.819 345.705 764.028 352.037 763.462 351.913C766.364 349.409 774.597 344.02 778.038 342.317Z"/><path fill="#0F0E0F" transform="translate(0.000244141 1.52588e-05)" d="M614.404 897.128C619.265 899.212 618.119 906.838 617.877 911.045C614.08 908.016 614.649 901.706 614.404 897.128Z"/><path fill="#0F0E0F" transform="translate(0.000244141 1.52588e-05)" d="M454.273 176.632C454.126 173.992 452.691 159.909 453.022 158.296C453.831 159.549 453.979 161.054 454.281 162.55C455.051 166.778 456.147 172.702 457.266 176.907L455.031 177.669L454.273 176.632Z"/><path fill="#272426" transform="translate(0.000244141 1.52588e-05)" d="M932.258 491.745C933.882 491.507 935.887 491.701 936.955 492.989L936.394 494.081C934.634 495.169 933.691 495.015 931.537 495.144C929.641 494.845 927.477 494.718 926.067 493.521L926.231 492.722C928.097 491.631 930.025 491.828 932.258 491.745Z"/><path fill="#FEFEFE" fill-opacity="0.015686275" transform="translate(0.000244141 1.52588e-05)" d="M656.569 722.501C654.081 717.205 650.705 710.502 648.641 705.178C652.266 710.265 656.672 719.128 659.887 722.928C658.339 722.453 658.203 722.292 656.569 722.501Z"/><path fill="#202020" fill-opacity="0.90588236" transform="translate(0.000244141 1.52588e-05)" d="M280.623 295.309C278.07 293.341 262.524 280.718 261.923 279.069C264.08 279.52 274.055 288.442 276.32 290.412L281.583 294.851L280.623 295.309Z"/><path fill="#0F0E0F" fill-opacity="0.98823529" transform="translate(0.000244141 1.52588e-05)" d="M128.218 579.236C125.157 580.242 108.551 585.411 106.32 585.289C109.757 583.377 122.025 579.774 126.463 578.347L128.218 579.236Z"/><path fill="#0F0E0F" transform="translate(0.000244141 1.52588e-05)" d="M838.547 608.482C843.726 611.345 849.174 614.484 854.448 617.106C849.621 616.07 842.652 612.962 837.906 611.018L838.547 608.482Z"/><path fill="#FEFEFE" fill-opacity="0.011764706" transform="translate(0.000244141 1.52588e-05)" d="M697.697 640.607C699.479 642.073 705.651 646.968 706.58 648.52C705.927 649.656 705.613 649.894 705.552 651.16C703.458 649.171 700.118 645.114 698.033 642.773L697.697 640.607Z"/><path fill="#202020" fill-opacity="0.87450981" transform="translate(0.000244141 1.52588e-05)" d="M160.987 676.058C155.545 679.525 145.611 686.356 139.946 688.508C140.145 688.161 158.257 676.578 160.317 675.245L160.987 676.058Z"/><path fill="#FEFEFE" fill-opacity="0.011764706" transform="translate(0.000244141 1.52588e-05)" d="M273.946 547.816C277.121 546.631 280.46 545.982 283.769 545.234C280.849 547.084 276.272 549.566 273.051 550.776C271.972 550.598 271.843 550.683 270.757 550.856L270.506 550.218L270.92 549.365L274.009 548.45L273.946 547.816Z"/><path fill="#0F0E0F" fill-opacity="0.98431373" transform="translate(0.000244141 1.52588e-05)" d="M211.087 256.494C214.89 258.301 221.356 262.764 225.098 265.19L222.951 266.885C218.918 263.189 215.342 259.966 211.087 256.494Z"/><path fill="#0F0E0F" fill-opacity="0.98039216" transform="translate(0.000244141 1.52588e-05)" d="M467.163 166.185C466.424 162.169 465.271 152.682 465.721 148.738C466.64 150.634 467.833 158.788 468.244 161.438C467.71 163.317 467.433 164.267 467.163 166.185Z"/><path fill="#0F0E0F" transform="translate(0.000244141 1.52588e-05)" d="M440.357 782.66L443.216 782.411C441.691 787.623 440.43 791.06 438.459 796.037C439.152 791.663 439.676 787.101 440.357 782.66Z"/><path fill="#0F0E0F" fill-opacity="0.97647059" transform="translate(0.000244141 1.52588e-05)" d="M235.279 667.723C238.653 664.98 242.606 661.582 246.2 659.264L246.488 661.095C243.088 663.944 239.918 665.872 236.204 668.232L235.279 667.723Z"/><path fill="#0F0E0F" fill-opacity="0.95294118" transform="translate(0.000244141 1.52588e-05)" d="M710.33 204.247C712.013 201.873 718.459 192.486 720.203 190.936L719.579 191.685L720.092 191.539C717.258 196.279 714.389 200.185 711.662 204.614L710.33 204.247Z"/><path fill="#FEFEFE" fill-opacity="0.011764706" transform="translate(0.000244141 1.52588e-05)" d="M788.64 329.43L791.039 331.36C790.094 332.217 782.435 335.499 780.773 336.233C783.453 334.034 786.077 331.766 788.64 329.43Z"/><path fill="#0F0E0F" fill-opacity="0.95686275" transform="translate(0.000244141 1.52588e-05)" d="M897.972 447.452L902.756 447.865C898.073 448.689 890.667 448.969 885.967 448.878L885.707 448.601L884.856 448.59C888.826 447.789 893.924 447.563 897.972 447.452Z"/><path fill="#FEFEFE" fill-opacity="0.019607844" transform="translate(0.000244141 1.52588e-05)" d="M368.899 102.404C369.729 106.867 370.557 110.041 371.792 114.429C369.911 110.845 368.548 107.994 366.933 104.28L368.899 102.404Z"/><path fill="#0F0E0F" fill-opacity="0.97647059" transform="translate(0.000244141 1.52588e-05)" d="M164.145 594.64L164.428 594.947C163.071 596.876 155.671 598.998 153.001 599.913L152.854 599.788L152.819 599.203C156.047 597.504 160.629 595.948 164.145 594.64Z"/><path fill="#0F0E0F" fill-opacity="0.94117647" transform="translate(0.000244141 1.52588e-05)" d="M828.488 595.383C831.138 596.481 838.581 599.561 840.694 601.021C835.849 599.733 832.996 598.459 828.412 596.504L828.488 595.383Z"/><path fill="#0F0E0F" fill-opacity="0.92156863" transform="translate(0.000244141 1.52588e-05)" d="M460.263 733.357L461.099 733.517C461.001 738.019 461.233 741.923 459.569 746.12C459.093 744.2 460.054 735.78 460.263 733.357Z"/><path fill="#FEFEFE" fill-opacity="0.015686275" transform="translate(0.000244141 1.52588e-05)" d="M850.188 493.566L859.495 492.962L861.262 493.962L861.216 494.517L858.231 494.842C856.145 494.752 852.37 493.958 850.188 493.566Z"/><path fill="#272426" fill-opacity="0.96862745" transform="translate(0.000244141 1.52588e-05)" d="M710.091 270.443C708.212 272.875 705.989 275.909 703.931 278.108C703.557 277.628 702.596 276.938 702.12 276.559C705.15 274.418 707.261 272.832 710.091 270.443Z"/><path fill="#0F0E0F" transform="translate(0.000244141 1.52588e-05)" d="M107.613 399.553L115.823 402.69L107.084 402.026L107.613 399.553Z"/><path fill="#0F0E0F" fill-opacity="0.97254902" transform="translate(0.000244141 1.52588e-05)" d="M196.887 176.102L192.633 171.235L192.738 170.39L192.273 170.748L191.958 170.052C193.825 170.856 196.554 173.406 198.218 174.815L196.887 176.102Z"/><path fill="#0F0E0F" fill-opacity="0.9137255" transform="translate(0.000244141 1.52588e-05)" d="M817.374 520.182C819.41 520.474 823.596 520.927 825.334 521.627C821.719 521.998 818.937 521.589 815.332 521.228L817.374 520.182Z"/><path fill="#0F0E0F" fill-opacity="0.97254902" transform="translate(0.000244141 1.52588e-05)" d="M894.015 407.375C889.791 409.682 887.865 409.214 884.532 410.584L884.022 409.055C887.295 408.525 890.78 408.018 894.015 407.375Z"/><path fill="#FEFEFE" fill-opacity="0.011764706" transform="translate(0.000244141 1.52588e-05)" d="M375.956 184.33L377.772 182.379L380.863 192.02C379.255 189.473 377.629 186.823 375.956 184.33Z"/><path fill="#0F0E0F" fill-opacity="0.92156863" transform="translate(0.000244141 1.52588e-05)" d="M848.653 604.54C851.944 605.147 855.572 607.337 858.443 609.022C855.464 608.958 850.896 606.544 848.653 604.54Z"/><path fill="#272426" fill-opacity="0.95294118" transform="translate(0.000244141 1.52588e-05)" d="M237.031 483.065C238.368 482.831 239.365 482.753 240.706 482.628L240.997 483.26C243.497 483.571 249.236 483.178 250.372 483.869L238.643 484.002L237.031 483.065Z"/><path fill="#272426" fill-opacity="0.98039216" transform="translate(0.000244141 1.52588e-05)" d="M431.804 162.196L434.214 169C432.762 170.424 433.283 169.589 432.744 171.683C432.251 168.529 432.058 165.379 431.804 162.196Z"/><path fill="#FEFEFE" fill-opacity="0.011764706" transform="translate(0.000244141 1.52588e-05)" d="M802.146 701.906L808.605 705.112C808.952 706.628 809.009 706.377 808.964 707.869L802.146 701.906Z"/><path fill="#FEFEFE" fill-opacity="0.015686275" transform="translate(0.000244141 1.52588e-05)" d="M774.185 575.786C776.843 576.727 779.203 577.393 781.911 578.155L781.141 580.209C779.019 579.062 776.263 577.143 774.185 575.786Z"/><path fill="#0F0E0F" fill-opacity="0.95686275" transform="translate(0.000244141 1.52588e-05)" d="M894.81 414.266L895.247 414.142L895.615 414.536C893.276 415.507 891.519 415.695 889.043 416.131L888.23 415.944L887.951 415.435C890.273 414.551 892.331 414.511 894.81 414.266Z"/><path fill="#272426" fill-opacity="0.89019608" transform="translate(0.000244141 1.52588e-05)" d="M464.79 737.339L465.743 738.924C465.442 740.859 465.297 743.355 464.375 744.911C463.933 742.501 464.476 739.826 464.79 737.339Z"/><path fill="#272426" fill-opacity="0.9254902" transform="translate(0.000244141 1.52588e-05)" d="M122.622 518.324C124.541 519.227 127.641 518.777 130.068 519.032C127.826 519.518 121.897 519.705 119.548 519.514L119.76 519.058L122.622 518.324Z"/><path fill="#272426" fill-opacity="0.96470588" transform="translate(0.000244141 1.52588e-05)" d="M615.708 148.757C616.225 147.131 617.077 143.798 618.091 142.653C618.117 145.139 617.706 146.792 617.25 149.214L615.708 148.757Z"/><path fill="#FEFEFE" fill-opacity="0.019607844" transform="translate(0.000244141 1.52588e-05)" d="M246.892 444.692L252.703 445.682L247.388 446.07C245.121 446.014 243.547 445.836 241.293 445.551C243.186 445.445 245.244 445.529 246.892 444.692Z"/><path fill="#0F0E0F" fill-opacity="0.98431373" transform="translate(0.000244141 1.52588e-05)" d="M374.194 800.505L375.401 801.589C373.965 804.487 373.095 806.266 371.31 808.974L374.194 800.505Z"/><path fill="#EBEAEB" fill-opacity="0.098039217" transform="translate(0.000244141 1.52588e-05)" d="M615.416 195.974C616.198 193.41 617.094 190.069 618.169 187.682C617.735 190.846 617.509 193.864 616.234 196.784L615.806 197.28L615.416 195.974Z"/><path fill="#EBEAEB" fill-opacity="0.070588239" transform="translate(0.000244141 1.52588e-05)" d="M262.901 490.455C265.887 490.004 268.916 489.759 271.888 490.402C270.778 491.1 269.711 491.093 268.392 491.258C267.162 490.476 264.484 490.547 262.901 490.455Z"/><path fill="#272426" fill-opacity="0.96470588" transform="translate(0.000244141 1.52588e-05)" d="M948.593 464.169C950.606 464.122 952.889 463.868 954.725 464.555C953.584 465.28 951.094 465.312 949.605 465.443L948.593 464.169Z"/><path fill="#0F0E0F" fill-opacity="0.95686275" transform="translate(0.000244141 1.52588e-05)" d="M580.411 771.382L581.842 771.954C582.364 774.188 582.652 777.394 582.936 779.741C581.813 777.252 581.116 774.069 580.411 771.382Z"/><path fill="#0F0E0F" fill-opacity="0.95294118" transform="translate(0.000244141 1.52588e-05)" d="M863.952 611.46C867.452 612.13 868.433 612.782 871.121 615.109C868.38 614.742 866.083 613.106 863.952 611.46Z"/><path fill="#0F0E0F" fill-opacity="0.96470588" transform="translate(0.000244141 1.52588e-05)" d="M380.196 806.177L381.404 806.41L379.128 811.543L378.253 811.249C378.792 809.558 379.534 807.835 380.196 806.177Z"/><path fill="#B7B6B9" fill-opacity="0.29411766" transform="translate(0.000244141 1.52588e-05)" d="M774.439 711.795C776.795 712.227 778.508 714.487 780.244 716.249C777.758 716.014 776.257 713.731 774.439 711.795Z"/><path fill="#FEFEFE" fill-opacity="0.71372551" transform="translate(0.000244141 1.52588e-05)" d="M711.833 267.802C711.048 268.94 710.662 269.398 709.739 270.434L709.258 270.447C709.779 268.42 710.695 267.101 712.596 266.173L711.833 267.802Z"/><path fill="#0F0E0F" fill-opacity="0.9137255" transform="translate(0.000244141 1.52588e-05)" d="M884.732 699.116L885.597 698.065L891.984 703.277C889.502 701.902 887.153 700.6 884.732 699.116Z"/><path fill="#9F9FA1" fill-opacity="0.43137255" transform="translate(0.000244141 1.52588e-05)" d="M252.703 445.682L254.711 445.966L254.84 446.284C251.905 446.494 250.369 446.621 247.388 446.07L252.703 445.682Z"/><path fill="#272426" fill-opacity="0.80784315" transform="translate(0.000244141 1.52588e-05)" d="M216.872 698.714L217.631 699.147C216.303 700.229 214.687 701.818 213.111 702.121C213.84 700.695 215.521 699.701 216.872 698.714Z"/><path fill="#272426" fill-opacity="0.87843138" transform="translate(0.000244141 1.52588e-05)" d="M241.717 591.697C239.564 592.631 239.169 592.834 236.903 593.258C237.587 592.212 239.316 591.599 240.606 590.941L241.717 591.697Z"/><path fill="#272426" fill-opacity="0.84705883" transform="translate(0.000244141 1.52588e-05)" d="M378.253 811.249L379.128 811.543C378.417 813.295 378.034 814.632 376.792 816.057C376.655 814.624 377.662 812.684 378.253 811.249Z"/><path fill="#EBEAEB" fill-opacity="0.05882353" transform="translate(0.000244141 1.52588e-05)" d="M549.807 688.238C549.541 685.789 549.438 684.905 549.644 682.47L550.001 682.554L550.713 685.138C550.301 686.359 550.057 686.96 549.807 688.238Z"/><path fill="#FEFEFE" fill-opacity="0.011764706" transform="translate(0.000244141 1.52588e-05)" d="M435.238 195.208L436.576 194.268C436.789 196.109 437.167 197.199 436.644 198.839C435.837 197.239 435.747 196.869 435.238 195.208Z"/><path fill="#9F9FA1" fill-opacity="0.090196081" transform="translate(0.000244141 1.52588e-05)" d="M230.63 468.508C232.192 468.49 234.739 468.268 236.066 468.864C234.109 469.515 233.044 469.426 230.951 469.503L230.63 468.508Z"/><path fill="#595659" fill-opacity="0.82745099" transform="translate(0.000244141 1.52588e-05)" d="M243.49 603.082C241.685 604.068 240.767 604.762 238.774 605.03C239.451 603.975 241.392 603.286 242.712 602.627L243.49 603.082Z"/><path fill="#595659" fill-opacity="0.59215689" transform="translate(0.000244141 1.52588e-05)" d="M897.972 447.452C899.888 447.095 902.543 446.614 904.327 447.638C903.546 448.214 904.007 448.015 902.756 447.865L897.972 447.452Z"/><path fill="#6B6B6D" fill-opacity="0.81960785" transform="translate(0.000244141 1.52588e-05)" d="M230.764 483.299C233.185 482.937 234.611 483.023 237.031 483.065L238.643 484.002L235.779 483.915C234.212 483.589 232.382 483.463 230.764 483.299Z"/><path fill="#272426" fill-opacity="0.90980393" transform="translate(0.000244141 1.52588e-05)" d="M796.649 329.097C797.921 328.381 799.134 327.449 800.506 327.526C799.523 328.834 798.884 329.112 797.521 329.976L796.649 329.097Z"/><path fill="#EBEAEB" fill-opacity="0.24705882" transform="translate(0.000244141 1.52588e-05)" d="M460.263 733.357C460.665 731.858 460.764 730.148 461.737 729.549C461.732 731.435 461.588 731.761 461.099 733.517L460.263 733.357Z"/><path fill="#9F9FA1" fill-opacity="0.015686275" transform="translate(0.000244141 1.52588e-05)" d="M240.001 474.433L246.578 474.48L246.53 474.946L244.295 475.045L239.935 475.152L240.001 474.433Z"/><path fill="#272426" fill-opacity="0.9137255" transform="translate(0.000244141 1.52588e-05)" d="M437.221 747.165C436.646 749.184 436.594 749.472 435.548 751.252C435.239 749.901 435.88 748.674 436.32 747.116L437.221 747.165Z"/><path fill="#B7B6B9" fill-opacity="0.25490198" transform="translate(0.000244141 1.52588e-05)" d="M698.033 642.773C696.653 641.286 696.479 641.121 695.536 639.358L695.851 639.095L697.697 640.607L698.033 642.773Z"/><path fill="#B7B6B9" fill-opacity="0.72156864" transform="translate(0.000244141 1.52588e-05)" d="M235.779 483.915C233.805 483.974 231.526 484.183 229.645 483.723L230.764 483.299C232.382 483.463 234.212 483.589 235.779 483.915Z"/><path fill="#595659" fill-opacity="0.84313726" transform="translate(0.000244141 1.52588e-05)" d="M246.53 474.946L250.724 475.011C248.043 475.6 247.173 475.523 244.45 475.506L244.295 475.045L246.53 474.946Z"/><path fill="#272426" fill-opacity="0.7647059" transform="translate(0.000244141 1.52588e-05)" d="M235.279 667.723L236.204 668.232C234.91 669.197 234.94 669.219 233.444 669.78L233.492 669.18L235.279 667.723Z"/><path fill="#9F9FA1" fill-opacity="0.96078432" transform="translate(0.000244141 1.52588e-05)" d="M472.9 801.026L473.836 802.281C473.456 803.387 473.328 803.574 472.737 804.595C472.259 803.404 472.65 802.336 472.9 801.026Z"/><path fill="#6B6B6D" fill-opacity="0.41568628" transform="translate(0.000244141 1.52588e-05)" d="M483.296 671.483L483.7 670.593C484.122 672.105 483.907 673.5 483.598 675.036L483.296 671.483Z"/><path fill="#6B6B6D" fill-opacity="0.29019609" transform="translate(0.000244141 1.52588e-05)" d="M468.699 180.168C469.131 181.954 469.265 181.167 468.801 182.713C467.921 181.677 468.164 182.102 467.778 180.811L468.699 180.168Z"/><path fill="#565655" fill-opacity="0.3764706" transform="translate(0.000244141 1.52588e-05)" d="M246.578 474.48C248.26 474.531 249.484 474.275 250.724 475.011L246.53 474.946L246.578 474.48Z"/><path fill="#6B6B6D" fill-opacity="0.58431375" transform="translate(0.000244141 1.52588e-05)" d="M239.935 475.152L244.295 475.045L244.45 475.506L239.224 475.478L239.935 475.152Z"/><path fill="#9F9FA1" fill-opacity="0.10588235" transform="translate(0.000244141 1.52588e-05)" d="M781.09 466.114L779.901 465.921L779.682 465.393L781.055 465.006L781.09 466.114Z"/></svg>