<?xml version="1.0" encoding="utf-8" ?><svg xmlns="http://www.w3.org/2000/svg" xmlns:xlink="http://www.w3.org/1999/xlink" width="1024" height="1024" viewBox="0 0 1024 1024"><path fill="#0E0D0D" d="M470.453 132.595C493.02 131.427 497.592 145.036 504.458 162.991C506.665 168.761 509.051 174.748 511.306 180.515C520.415 204.042 529.684 227.506 539.113 250.906L556.379 219.274C566.474 200.829 576.405 174.784 602.54 181.155C627.608 187.265 624.851 210.048 624.997 229.983L625.258 259.21C648.035 239.285 669.871 217.081 692.24 196.666C701.179 189.076 709.743 179.206 719.644 172.918C731.233 165.558 748.92 170.429 755.408 182.208C757.951 186.831 759.045 192.113 758.546 197.367C757.746 205.239 752.982 214.132 750.007 221.419C744.494 234.925 734.741 252.841 730.861 266.62L730.653 267.371C740.052 262.079 755.605 251.312 765.322 245.048L843.472 194.018C856.759 185.262 872.573 174.095 887.039 167.162C889.469 166.561 894.62 166.034 896.895 166.66C926.411 174.783 919.485 198.487 903.047 215.554C899.028 219.728 892.062 229.751 888.839 233.906L831.933 306.532C822.645 318.329 809.088 334.244 801.333 346.267C812.059 344.695 829.365 341.911 838.069 349.363C868.894 375.756 823.046 403.397 808.161 422.203L807.701 422.789L865.519 430.347C875.616 431.619 899.175 433.95 908.394 437.156C911.988 438.435 915.165 440.673 917.579 443.626C922.185 449.209 923.74 455.981 923.24 463.079C922.188 478.023 906.177 483.251 894.626 488.507C886.773 492.079 878.662 495.396 870.765 498.845C851.513 507.237 832.318 515.762 813.183 524.417C810.88 525.449 797.955 530.696 796.81 531.655C797.239 532.618 797.813 533.231 799.003 533.855C826.877 548.552 880.422 560.207 851.253 602.275C844.121 612.561 807.442 612.458 795.346 612.508C806.571 624.617 817.893 639.121 829.112 651.647C838.893 663.456 850.412 674.881 858.976 687.57C870.02 703.934 854.002 729.281 834.476 727.056C825.288 726.008 815.373 722.556 806.47 719.982C787.376 714.261 768.243 708.671 749.073 703.213C752.718 713.123 761.464 729.839 766.41 740.085C775.408 759.19 784.525 778.238 793.762 797.228C800.602 811.182 810.562 828.719 813.563 843.414C816.534 860.367 794.378 876.76 780.039 866.806C762.528 854.649 745.87 840.048 729.768 826.14C710.878 809.825 691.059 794.51 672.367 778.177C675.922 793.147 681.083 813.767 679.181 829.083C677.016 846.528 647.875 854.989 635.597 842.859C628.64 835.986 623.003 826.796 617.45 818.596C608.529 805.479 599.759 792.261 591.142 778.942C590.063 791.883 590.46 795.002 585.447 807.085C581.682 812.231 578.696 815.599 572.706 818.394C565.969 821.54 558.244 821.819 551.298 819.166C538.459 814.159 534.542 801.586 529.564 789.958C524.653 798.376 519.769 810.889 516.041 819.941C510.987 832.256 505.862 844.541 500.666 856.797C494.085 872.553 487.842 894.583 466.622 892.789C461.261 892.336 459.294 892.018 454.537 889.034C443.97 882.405 443.585 871.699 441.895 860.641C441.107 855.377 440.332 849.787 439.553 844.365L432.544 796.914C431.213 788.04 429.99 778.257 428.288 769.541C410.749 787.03 395.913 808.344 378.062 825.698C363.743 839.64 340.047 831.088 337.416 811.508C336.572 805.226 336.884 798.604 337.377 792.241C338.038 783.724 338.282 774.973 339.027 766.46C340.014 755.2 339.781 743.029 341.002 731.908C334.047 734.755 326.889 738.163 319.816 741.104L197.564 792.327L173.049 802.644C163.357 806.81 151.67 812.967 141.324 814.446C122.524 817.133 108.462 795.296 118.688 779.273C123.054 772.431 129.812 765.928 135.401 760.057L155.736 738.687C181.381 711.991 206.804 685.084 232.004 657.969C214.776 655.153 190.77 658.098 178.484 643.333C171.316 634.605 170.613 618.486 178.297 609.945C190.271 596.637 207.781 588.348 221.911 577.356C204.199 573.764 179.739 565.769 161.798 560.82C154.005 558.645 146.189 556.549 138.353 554.533C125.183 551.142 108.271 548.805 102.81 534.597C99.1888 527.219 103.339 511.046 111.6 507.909C147.372 494.324 186.882 485.928 223.042 473.642C212.636 464.916 200.376 456.325 202.554 440.741C203.993 430.447 211.007 424.722 218.656 418.76C199.102 400.923 179.287 383.374 159.216 366.12C148.477 356.745 113.694 328.768 108.124 319.092C105.221 314.051 105.167 307.743 106.539 302.222C108.023 296.25 111.475 290.57 116.898 287.436C122.097 284.432 127.331 284.564 133.055 285.404C140.63 286.515 147.976 289.026 155.311 291.146L186.103 299.908L291.271 329.404C286.644 317.207 281.324 305.084 276.404 292.971L253.656 236.61C246.991 220.406 238.616 203.775 234.77 186.651C231.372 171.526 254.109 155.374 267.111 163.093C278.837 170.054 290.005 180.871 300.777 189.473C323.404 207.542 345.202 227.113 367.933 245.037C365.204 219.866 365.301 183.197 401.033 187.87C418.45 190.147 432.644 225.264 441.379 238.911C444.468 218.498 445.275 158.873 453.625 143.857C457 137.787 463.973 134.32 470.453 132.595Z"/><path fill="#FEFEFE" d="M317.194 447.978C310.346 428.179 305.016 408.849 310.393 387.999C315.095 369.788 326.893 354.217 343.154 344.764C361.517 333.94 383.463 330.961 404.047 336.499C426.979 342.648 442.686 357.417 454.387 377.532L448.385 380.385C433.563 370.987 416.252 378.645 402.3 385.692C417.234 382.682 427.986 380.438 443.174 383.946C429.145 394.481 424.635 402.345 418.136 418.423C390.966 412.474 379.465 437.424 387.483 460.146C387.223 457.352 387.178 454.542 387.349 451.742C387.961 442.488 391.742 433.309 398.907 427.059C403.295 423.232 408.703 422.572 414.348 422.971C414.868 423.008 416.395 423.57 416.439 423.748C418.435 431.853 417.728 436.294 423.013 443.069L423.443 443.611C423.389 438.056 423.245 433.442 424.089 427.913C426.525 412.605 434.959 398.898 447.525 389.824C459.33 381.397 474.019 378.05 488.309 380.533C510.155 384.172 517.333 395.039 529.185 411.487C530.145 412.646 531.353 414.261 532.524 415.097C529.08 400.823 526.073 394.544 514.756 384.814C526.411 375.871 538.926 368.365 551.461 360.731C549.805 366.526 547.307 374.291 546.066 379.991C554.63 379.611 563.202 379.445 571.774 379.495C563.907 388.692 561.214 391.403 557.292 403.045C575.242 381.135 595.107 356.175 614.303 335.359C605.781 358.838 595.885 385.233 588.869 409.174C599.357 398.083 595.701 394.653 601.712 383.277C604.493 378.014 621.877 364.798 627.661 360.369L623.167 409.499C622.298 418.193 620.729 428.816 620.403 437.356C633.639 430.847 647.903 424.526 660.821 417.863C651.882 426.448 642.424 434.79 633.691 443.51C616.175 436.624 603.913 438.163 593.298 455.196C571.228 445.813 552.498 445.892 534.506 463.68C522.179 451.629 510.648 444.727 492.965 447.67C488.023 448.313 480.464 453.448 476.846 456.741C465.099 465.078 460.762 475.71 455.612 488.661C453.798 487.3 451.636 485.58 449.739 484.417L446.169 482.029C445.729 487.04 445.416 491.279 445.289 496.34C431.272 499.997 420.75 504.623 412.924 517.841C407.136 527.746 405.501 539.538 408.374 550.644C411.614 563.264 420.041 573.169 431.53 579.114C430.273 583.646 428.622 589.45 428.37 594.093C419.787 590.815 417.033 590.118 407.943 589.403C398.552 582.793 389.746 576.76 384.102 566.668C383.348 565.32 381.807 561.969 380.787 561.235C383.619 573.066 389.539 587.049 396.482 597.065C410.02 596.289 423.741 597.634 434.322 607.192C440.07 612.311 443.493 619.544 443.805 627.235C444.161 634.538 441.974 641.473 439.145 648.114C445.184 641.817 446.652 639.825 449.975 631.842C462.7 635.484 477.83 641.184 484.039 653.621C499.941 685.476 462.023 721.843 430.021 711.196C416.566 706.719 411.333 696.878 407.517 684.323C420.39 687.209 424.738 684.216 432.938 674.403C410.623 688.199 400.924 680.565 404.562 655.074C399.55 661.913 400.441 671.226 400.541 679.423C383.959 681.106 372.152 681.373 357.066 673.054C342.689 665.127 334.789 652.963 330.293 637.439C323.493 616.701 332.884 596.763 346.729 581.542C346.507 579.001 345.865 576.048 345.392 573.507C342.795 574.686 334.567 584.609 332.248 587.252C310.39 578.37 301.462 556.07 310.564 534.205C313.193 527.89 316.964 523.824 321.724 519.019L322.359 519.27C331.663 522.886 336.146 522.926 345.223 518.928C341.803 518.914 339.185 518.906 335.775 518.563C323.708 518.545 318.386 511.891 314.779 501.382C307.407 502.276 301.495 502.351 294.591 498.792C286.892 494.807 281.145 487.862 278.67 479.553C275.903 470.295 276.915 460.317 281.485 451.803C287.481 440.575 295.83 436.914 307.376 433.497C310.499 438.336 313.933 443.212 317.194 447.978Z"/><path fill="#F68429" d="M443.258 479.102L446.169 482.029C445.729 487.04 445.416 491.279 445.289 496.34C431.272 499.997 420.75 504.623 412.924 517.841C407.136 527.746 405.501 539.538 408.374 550.644C411.614 563.264 420.041 573.169 431.53 579.114C430.273 583.646 428.622 589.45 428.37 594.093C419.787 590.815 417.033 590.118 407.943 589.403C398.552 582.793 389.746 576.76 384.102 566.668C383.348 565.32 381.807 561.969 380.787 561.235C375.349 545.463 379.094 528.289 387.832 514.38C396.319 500.871 407.73 499.35 422.265 497.101C432.224 495.56 438.081 486.959 443.258 479.102Z"/><path fill="#ECEBEB" d="M335.775 518.563C338.994 518.299 341.127 518.264 344.353 518.302C345.424 523.483 344.427 531.228 344.041 536.641C343.278 547.346 342.747 563.311 345.392 573.507C342.795 574.686 334.567 584.609 332.248 587.252C310.39 578.37 301.462 556.07 310.564 534.205C313.193 527.89 316.964 523.824 321.724 519.019L322.359 519.27C331.663 522.886 336.146 522.926 345.223 518.928C341.803 518.914 339.185 518.906 335.775 518.563Z"/><path fill="#ECEBEB" d="M330.293 637.439C333.993 639.205 338.97 643.434 342.226 646.046C352.012 653.897 363.541 656.575 375.875 656.947C384.211 657.294 395.239 654.023 403.512 654.059C403.606 654.06 404.352 654.555 404.562 655.074C399.55 661.913 400.441 671.226 400.541 679.423C383.959 681.106 372.152 681.373 357.066 673.054C342.689 665.127 334.789 652.963 330.293 637.439Z"/><path fill="#ECEBEB" d="M529.185 411.487C530.145 412.646 531.353 414.261 532.524 415.097C532.2 417.257 532.646 416.405 531.49 417.927C528.402 417.684 528.992 413.635 529.185 411.487Z"/><path fill="#2E2C2C" d="M343.433 455.587C352.934 455.267 355.935 457.908 362.27 464.227C349.783 459.717 340.228 456.524 332.565 469.933C330.451 476.463 332.101 480.448 334.274 486.582C324.251 471.684 324.892 461.33 343.433 455.587Z"/><path fill="#2E2C2C" d="M364.691 593.219C367.745 594.232 372.95 598.51 375.568 600.592C369.245 601.24 366.348 598.962 364.691 593.219Z"/><path fill="#0E0D0D" d="M358.447 595.043C362.555 597.703 367.772 601.543 371.585 604.516C365.443 603.481 360.749 601.183 358.447 595.043Z"/><path fill="#FEFEFE" d="M653.34 566.271C630.514 562.034 611.443 553.02 602.793 529.804C597.351 515.196 598.839 499.482 605.469 485.506C612.825 470.129 626.012 458.323 642.105 452.705C655.898 447.766 671.101 448.602 684.27 455.024C699.74 462.605 705.442 473.431 710.789 488.88C688.582 497.433 679.451 508.644 674.244 531.337C677.111 526.779 679.66 521.789 682.814 517.394C693.341 502.724 715.668 487.892 733.731 498.279C751.183 508.315 746.641 534.478 738.059 549.005C736.125 547.614 734.113 545.335 732.422 543.578C728.431 542.589 727.104 542.514 723.134 542.472C730.582 549.229 735.529 554.675 737.917 564.86C739.83 573.019 738.832 581.43 734.269 588.576C730.075 595.155 723.386 599.744 715.738 601.29C702.119 604.104 692.733 597.507 681.914 590.516C686.252 596.551 688.033 598.822 693.612 603.654C699.019 606.596 701.167 607.449 707.131 608.973C701.84 635.798 690.179 647.855 662.986 652.273C659.222 645.77 655.667 639.821 651.225 633.713C652.984 638.359 654.631 642.12 656.675 646.609C661.381 655.936 665.626 665.286 670.248 674.603C677.131 688.48 684.543 701.945 690.491 716.296C686.263 712.191 673.56 697.237 669.646 692.467C657.035 677.098 627.101 644.819 620.536 626.934C620.564 642.051 617.913 656.22 606.978 667.453C592.134 682.7 565.638 685.213 548.524 672.418C534.748 661.76 527.712 641.082 534.842 624.718C537.828 617.692 543.55 612.187 550.687 609.475C562.013 605.143 571.216 607.836 581.628 612.535C576.117 596.366 578.631 583.378 593.433 573.206C604.344 565.709 616.693 563.304 629.499 566.856C636.145 568.7 643.842 571.607 650.575 572.735C650.513 577.012 650.59 579.566 650.995 583.812C657.778 564.039 667.9 561.832 686.373 555.533C685.056 555.327 683.732 555.172 682.403 555.068C669.297 554.012 662.858 558.127 653.34 566.271Z"/><path fill="#ECEBEB" d="M693.612 603.654C699.019 606.596 701.167 607.449 707.131 608.973C701.84 635.798 690.179 647.855 662.986 652.273C659.222 645.77 655.667 639.821 651.225 633.713C652.984 638.359 654.631 642.12 656.675 646.609C651.769 643.732 648.71 634.43 646.886 629.402C667.531 631.368 686.028 624.498 693.612 603.654Z"/><path fill="#ECEBEB" d="M548.524 672.418C553.522 671.084 560.95 671.059 566.35 670.065C583.41 666.927 597.723 657.016 608.557 643.793C611.021 640.809 613.258 637.645 615.247 634.326C616.822 631.649 618.156 628.166 620.152 626.051L620.536 626.934C620.564 642.051 617.913 656.22 606.978 667.453C592.134 682.7 565.638 685.213 548.524 672.418Z"/><path fill="#0E0D0D" d="M630.217 464.859L630.781 465.991C630.303 471.131 624.841 483.599 622.432 488.597L621.842 488.265C622.052 480.097 625.498 471.455 630.217 464.859Z"/><path fill="#0E0D0D" d="M618.341 473.332C621.08 475.952 618.091 486.937 617.27 490.647C614.487 487.943 616.93 476.902 618.341 473.332Z"/><path fill="#FEC922" d="M476.846 456.741C480.464 453.448 488.023 448.313 492.965 447.67C496.278 449.135 500.246 448.375 503.844 449.274C516.375 452.404 527.204 459.282 534.728 469.841L535.559 468.779C554.499 448.924 580.863 448.982 600.551 467.745C602.12 469.259 603.655 470.808 605.154 472.39C599.995 481.504 597.67 485.844 594.983 496.107C593.352 505.356 592.798 514.904 594.118 524.24C571.134 521.269 556.325 526.234 548.358 549.28C513.101 554.411 505.822 595.782 531.742 615.819C526.905 625.711 525.125 629.454 525.541 640.701C526.813 650.593 527.795 654.292 531.674 663.458C517.539 670.285 511.685 670.76 495.943 669.428C494.835 660.249 493.925 656.417 490.06 648.025C478.267 632.377 469.606 629.586 450.749 625.458C449.951 617.949 446.681 611.71 442.725 605.46C439.167 601.844 436.049 599.259 432.18 596.019C432.631 590.249 433.565 585.744 434.756 580.146C440.001 581.32 442.708 581.518 448.036 581.555C454.048 579.902 459.608 577.1 463.972 572.586C461.145 573.969 457.552 575.54 454.539 576.36C446.155 578.692 437.185 577.543 429.659 573.173C421.172 568.267 415.422 559.894 412.94 550.499C410.132 539.925 411.654 528.669 417.17 519.221C423.85 507.842 433.661 503.227 445.893 499.966C450.108 511.719 453.379 514.943 464.61 520.05C450.59 508.302 449.397 502.579 449.739 484.417C451.636 485.58 453.798 487.3 455.612 488.661C460.762 475.71 465.099 465.078 476.846 456.741Z"/><path fill="#FBA925" d="M535.559 468.779C554.499 448.924 580.863 448.982 600.551 467.745C602.12 469.259 603.655 470.808 605.154 472.39C599.995 481.504 597.67 485.844 594.983 496.107C593.111 493.328 591.714 487.376 590.464 483.877C583.536 464.493 552.903 457.495 537.259 470.813L535.559 468.779Z"/><path fill="#FBA925" d="M525.541 640.701C526.813 650.593 527.795 654.292 531.674 663.458C517.539 670.285 511.685 670.76 495.943 669.428C494.835 660.249 493.925 656.417 490.06 648.025C503.4 648.378 513.234 645.688 525.541 640.701Z"/><path fill="#FBA925" d="M476.846 456.741C480.464 453.448 488.023 448.313 492.965 447.67C496.278 449.135 500.246 448.375 503.844 449.274C516.375 452.404 527.204 459.282 534.728 469.841C534.333 470.846 534.591 470.836 533.358 471.236C528.456 472.825 526.53 472.691 522.137 475.784C515.755 464.376 501.536 457.997 488.897 457.198C484.915 456.947 480.614 458.217 476.846 456.741Z"/><path fill="#F68429" d="M434.756 580.146C440.001 581.32 442.708 581.518 448.036 581.555C443.761 591.094 443.036 595.002 442.725 605.46C439.167 601.844 436.049 599.259 432.18 596.019C432.631 590.249 433.565 585.744 434.756 580.146Z"/><defs><linearGradient id="gradient_0" gradientUnits="userSpaceOnUse" x1="532.39081" y1="482.50916" x2="531.37604" y2="469.83005"><stop offset="0" stop-color="#371B00"/><stop offset="1" stop-color="#151D28"/></linearGradient></defs><path fill="url(#gradient_0)" d="M535.559 468.779L537.259 470.813C542.151 475.912 544.634 478.862 548.632 484.656C534.911 474.709 529.964 472.775 516.425 484.679C518.35 481.127 519.454 478.827 522.137 475.784C526.53 472.691 528.456 472.825 533.358 471.236C534.591 470.836 534.333 470.846 534.728 469.841L535.559 468.779Z"/><defs><linearGradient id="gradient_1" gradientUnits="userSpaceOnUse" x1="820.29218" y1="296.80106" x2="606.77753" y2="370.30609"><stop offset="0" stop-color="#FDA924"/><stop offset="1" stop-color="#F57E2A"/></linearGradient></defs><path fill="url(#gradient_1)" d="M605.029 372.601C607.705 365.112 611.184 350.174 615.07 344.06C619.282 337.433 628.617 328.119 634.118 321.263C656.806 292.989 677.399 265.881 703.166 240.144C698.014 255.455 688.113 275.398 681.38 290.708C670.436 315.593 659.68 341.526 648.215 366.097C670.312 352.936 691.07 338.463 712.622 324.518C739.724 306.981 767.452 290.326 794.349 272.439C800.881 268.095 807.828 263.523 814.59 259.587C803.294 271.422 784.862 287.094 772.306 298.558L692.116 371.946C688.089 375.635 667.882 393.12 666.434 395.946C666.389 397.997 666.108 397.122 667.054 398.727C669.98 398.431 701.594 367.963 707.897 363.024C709.318 376.311 700.014 422.652 703.606 429.428C695.199 434.421 685.713 438.764 676.849 443.008C662.246 440.365 652.109 442.758 638.237 446.069C652.211 432.29 665.997 418.323 679.594 404.172C662.666 410.837 646.615 419.401 630.446 427.706C630.471 424.049 630.797 420.384 631.045 416.737C632.672 392.786 634.689 368.83 634.996 344.816C626.258 352.031 614.176 364.326 605.029 372.601Z"/><path fill="#FBA925" d="M666.321 657.146C673.607 656.309 676.3 655.677 683.207 653.264C699.105 684.647 714.646 716.209 729.826 747.946C736.173 760.976 746.311 779.167 751.414 791.936L671.884 723.89L640.602 697.147C636.295 693.505 630.196 688.032 625.792 684.75L634.228 744.874C636.161 758.27 638.668 773.468 639.762 786.833C625.999 769.268 619.087 740.489 612.698 719.187C608.817 706.307 604.775 693.475 600.573 680.696C607.39 676 612.019 672.351 617.498 666.028C626.7 669.751 632.332 671.305 641.936 673.778C655.245 689.279 669.209 704.206 683.79 718.518C689.869 724.543 697.277 732.116 703.878 737.43C704.798 736.474 705.493 735.277 706.242 734.153C700.678 721.322 695.736 710.811 689.072 698.48C681.71 684.856 673.13 670.942 666.321 657.146Z"/><path fill="#200E01" d="M706.242 734.153C707.487 737.037 708.787 739.925 709.868 742.87C708.776 741.881 704.692 738.333 703.878 737.43C704.798 736.474 705.493 735.277 706.242 734.153Z"/><path fill="#F68429" d="M533.463 668C535.184 668.804 538.042 672.319 539.584 673.811C548.381 682.327 556.556 684.135 568.021 686.271C564.292 708.934 558.796 735.315 556.3 757.425C555.027 754.279 553.68 751.144 552.384 748.002C544.441 728.746 538.787 708.085 530.454 689.035C522.307 707.753 514.37 727.46 506.467 746.347L487.807 790.34C483.922 799.499 479.858 809.83 475.129 818.495C478.663 803.062 480.698 784.678 483.275 768.774C488.571 737.031 493.701 705.259 498.664 673.462C513.88 673.984 519.188 673.434 533.463 668Z"/><path fill="#FBA925" d="M549.446 557.7C554.954 534.314 570.581 522.754 594.669 528.591L595.483 528.796C601.338 542.781 605.165 548.878 616.8 558.777C588.476 566.094 574.229 571.853 573.134 603.477C556.147 600.13 546.925 601.925 533.613 613.235C524.877 603.709 520.365 595.954 520.895 582.715C521.608 564.912 532.539 557.269 547.991 552.422C547.995 554.656 547.92 557.479 548.065 559.66C548.613 559.028 548.979 558.402 549.446 557.7Z"/><path fill="#200E01" d="M549.446 557.7C549.477 561.348 549.579 565.182 549.342 568.809C548.816 565.718 548.255 562.794 548.065 559.66C548.613 559.028 548.979 558.402 549.446 557.7Z"/><path fill="#FBA925" d="M701.066 435.337L742.923 414.001C756.94 406.818 768.109 400.446 783.193 395.449C768.591 411.793 742.653 431.498 725.307 446.701C753.896 452.784 784.787 455.645 813.721 460.34C823.722 461.962 837.362 463.337 846.792 465.615L726.925 478.721L727.045 482.485C724.21 482.826 721.583 482.958 718.948 484.007L718.667 484.63L718.847 484.933C717.393 484.942 718.11 485.088 716.761 484.054C716.036 482.24 716.106 482.083 716.185 480.076C713.644 469.595 706.304 461.52 698.858 454.097C693.379 450.38 688.604 448.027 682.741 445.009C688.851 441.19 694.538 438.305 701.066 435.337Z"/><path fill="#F68429" d="M682.741 445.009C688.851 441.19 694.538 438.305 701.066 435.337C700.519 440.45 698.975 449.533 698.858 454.097C693.379 450.38 688.604 448.027 682.741 445.009Z"/><path fill="#2E2C2C" d="M716.185 480.076C718.197 480.103 724.598 479.054 726.925 478.721L727.045 482.485C724.21 482.826 721.583 482.958 718.948 484.007L718.667 484.63L718.847 484.933C717.393 484.942 718.11 485.088 716.761 484.054C716.036 482.24 716.106 482.083 716.185 480.076Z"/><path fill="#F68429" d="M485.353 222.267C487.226 224.621 494.895 247.085 496.37 251.266C506.571 280.218 516.542 309.252 526.281 338.363C537.502 320.823 548.961 303.436 560.654 286.207C568.356 274.63 576.096 262.267 584.494 251.272C581.389 259.153 578.383 267.073 575.478 275.03C566.307 300.819 556.818 326.493 547.011 352.048C537.392 358.322 534.571 361.316 526.965 369.676C519.914 361.017 516.034 361.699 505.499 362.619C505.578 356.996 505.694 353.23 504.051 347.792C502.259 341.492 497.91 334.213 497.302 327.683C494.042 292.657 488.135 257.278 485.353 222.267Z"/><defs><linearGradient id="gradient_2" gradientUnits="userSpaceOnUse" x1="825.36786" y1="337.88068" x2="694.57977" y2="353.68607"><stop offset="0" stop-color="#FFC620"/><stop offset="1" stop-color="#F79E26"/></linearGradient></defs><path fill="url(#gradient_2)" d="M816.393 263.647L816.94 265.215C806.199 279.599 794.44 294.178 783.32 308.326C758.963 339.288 734.33 370.032 709.422 400.553C724.984 400.403 751.066 398.94 766.985 397.063C749.421 407.259 722.077 420.999 703.606 429.428C700.014 422.652 709.318 376.311 707.897 363.024C711.014 358.64 728.246 343.798 733.263 339.15L816.393 263.647Z"/><path fill="#F68429" d="M590.451 246.008L587.444 298.095C586.7 311.049 585.642 324.888 585.575 337.791C615.827 314.716 643.616 289.405 673.561 266.422L638.086 310.267C633.171 316.331 622.935 329.478 617.75 334.397C617.503 333.01 618.397 331.197 618.919 329.662L615.937 327.871C603.429 341.933 591.232 356.27 579.357 370.871C569.812 358.884 567.213 353.189 552.198 349.158C562.132 325.029 570.287 298.964 579.638 274.485C583.251 265.029 586.431 255.338 590.451 246.008Z"/><path fill="#200E01" d="M615.937 327.871L621.364 322.008C620.918 323.343 619.085 328.584 618.919 329.662L615.937 327.871Z"/><path fill="#F68429" d="M320.809 626.87C322.1 628.044 322.899 638.132 323.74 641.038C326.101 649.198 329.247 654.459 333.502 661.582C321.64 670.464 303.834 681.623 291.337 689.706L219.401 736.011C216.672 737.923 214.412 739.485 211.547 741.181C216.968 733.51 226.681 723.869 233.419 716.917L266.532 682.901C284.745 664.121 301.273 644.353 320.809 626.87Z"/><path fill="#F68429" d="M298.805 236.871C304.696 238.908 330.189 262.2 336.637 267.685C358.503 286.138 380.242 304.74 401.852 323.492C402.497 300.38 403.944 277.742 404.663 254.799C407.621 263.036 410.399 275.575 412.563 284.346C417.328 302.743 423.291 318.773 426.333 337.811C405.561 327.408 393.872 323.018 370.094 326.921C362.262 318.406 355.084 308.525 347.821 299.39L298.805 236.871Z"/><path fill="#FEFEFE" d="M430.115 340.325C434.471 333.909 438.877 328.939 445.83 325.216C454.241 320.768 464.073 319.841 473.168 322.638C485.661 326.434 492.557 334.794 498.417 345.887C501.016 353.377 501.142 356.023 500.991 363.923C497.026 366.895 494.032 369.292 490.83 373.145C478.101 371.275 470.598 371.784 458.467 375.846L454.382 367.087C446.361 354.191 441.359 350.134 430.115 340.325Z"/><path fill="#ECEBEB" d="M498.417 345.887C501.016 353.377 501.142 356.023 500.991 363.923C497.026 366.895 494.032 369.292 490.83 373.145C478.101 371.275 470.598 371.784 458.467 375.846L454.382 367.087C467.378 366.884 480.33 363.358 490.137 354.529C493.315 351.668 495.403 348.884 498.417 345.887Z"/><path fill="#F68429" d="M336.357 664.903C338.76 666.823 341.748 669.947 344.365 672.1C349.788 676.562 354.2 678.876 360.292 682.122C348.755 687.946 329.301 695.533 316.939 700.822L231.192 737.552L213.094 745.204C232.675 730.452 254.894 718.199 275.385 704.794C295.886 691.382 315.528 677.92 336.357 664.903Z"/><path fill="#F68429" d="M282.555 499.024C294.43 503.511 293.637 508.362 310.149 506.957L315.083 515.318C312.833 517.898 310.905 520.785 308.932 523.589C284.852 523.48 250.078 525.452 226.054 527.418C214.464 527.54 203.04 528.511 191.292 528.496C202.558 524.088 214.032 520.798 225.531 517.132C244.478 511.091 263.742 505.432 282.555 499.024Z"/><path fill="#F68429" d="M202.351 351.88C207.608 353.432 227.432 363.994 233.155 366.92C255.417 378.093 277.541 389.54 299.522 401.257C299.418 406.307 299.384 411.137 300.427 416.14C300.998 418.877 303.839 425.655 303.902 427.887L302.885 428.369C300.146 429.073 297.951 429.891 295.311 430.847C263.552 406.079 234.047 376.888 202.351 351.88Z"/><path fill="#F68429" d="M296.447 240.825C298.912 242.384 360.311 320.483 364.633 327.621L357.378 329.8C349.905 332.27 345.301 334.584 338.346 338.105C334.46 331.183 327.368 313.497 323.854 305.405C314.838 284.638 303.807 261.971 296.447 240.825Z"/><path fill="#FEC922" d="M731.614 602.597C738.809 607.582 753.27 624.229 759.998 630.875C776.206 646.885 792.024 663.167 807.359 680.016C803.053 677.603 798.482 674.691 794.237 672.106L712.957 620.601C713.731 616.748 714.379 612.626 715.06 608.736C722.1 606.911 725.04 605.781 731.614 602.597Z"/><path fill="#F68429" d="M492.213 686.332C493.274 690.334 486.219 729.192 484.76 736.973C480.196 761.324 477.131 787.048 472.366 811.29C472.001 808.04 471.783 804.883 471.551 801.624C471.383 792.928 469.523 779.889 468.529 770.946L462.142 715.119C477.474 708.283 484.381 700.59 492.213 686.332Z"/><path fill="#F68429" d="M189.845 338.925C194.905 339.079 216.486 346.458 222.413 348.514C249.684 357.973 278.599 365.234 305.631 374.983C303.63 380.077 301.977 385.302 300.684 390.621L299.516 396.631L239.683 366.113C224.894 358.714 202.544 348.667 189.845 338.925Z"/><path fill="#F68429" d="M299.038 527.716L306.293 527.505C300.847 538.994 300.355 541.823 300.04 554.267C276.279 550.359 252.798 544.337 229.39 538.656C221.002 536.686 212.37 534.842 204.185 532.224L299.038 527.716Z"/><path fill="#FBA925" d="M846.74 468.929C839.357 473.475 811.208 481.938 801.18 485.134C783.763 490.636 766.482 496.563 749.354 502.91C742.846 493.376 737.006 487.809 725.242 485.623C723.13 485.239 720.993 485.009 718.847 484.933L718.667 484.63L718.948 484.007C721.583 482.958 724.21 482.826 727.045 482.485C742.017 482.146 769.715 478.334 785.337 476.538C802.678 474.543 830.436 472.292 846.74 468.929Z"/><path fill="#F68429" d="M305.609 572.582C316.363 585.479 314.712 585.071 329.642 593.006C321.669 594.841 312.629 597.648 304.596 599.781L256.165 612.353C248.999 614.601 242.952 616.043 235.659 617.5C248.151 608.825 260.605 600.888 273.429 592.781C284.203 585.971 294.579 579.043 305.609 572.582Z"/><path fill="#FBA925" d="M711.401 624.201C722.777 630.414 740.048 642.521 751.609 649.849C768.496 660.553 788.685 672.079 804.666 683.455L794.909 679.562C783.359 674.764 770.989 670.402 759.253 665.914C739.298 658.311 719.423 650.503 699.629 642.491C704.95 635.587 707.326 631.702 711.401 624.201Z"/><path fill="#F68429" d="M596.447 682.568L596.926 682.804C599.08 686.215 604.11 703.858 605.671 708.925L621.287 759.55C617.237 754.346 613.428 748.882 609.596 743.509C597.547 726.956 578.974 703.392 568.903 686.498C581.036 686.556 584.898 686.026 596.447 682.568Z"/><path fill="#F68429" d="M408.651 253.36C413.853 256.94 444.759 307.634 450.027 316.151C446.897 317.709 443.776 319.285 440.664 320.88C435.325 324.55 433.515 326.264 429.214 331.153C422.117 307.814 414.223 277.077 408.651 253.36Z"/><path fill="#F68429" d="M481.231 229.407C483.724 231.882 492.337 318.611 493.116 327.22L489.502 324.42C483.693 320.399 480.2 318.678 473.866 315.696L478.252 261.249C479.065 251.35 479.82 239.109 481.231 229.407Z"/><path fill="#F68429" d="M398.759 685.209L399.842 685.207C401.882 687.283 403.616 695.382 404.452 698.584C401.299 705.094 398.087 713.296 395.101 720.045C389.329 732.766 383.676 745.54 378.142 758.366L375.886 763.562C378.208 738.932 382.456 711.276 385.68 686.564C389.544 686.474 394.815 685.685 398.759 685.209Z"/><path fill="#F68429" d="M323.149 599.107C324.741 598.863 324.029 598.691 325.381 599.274C323.838 606.438 322.598 611.119 321.909 618.48C294.882 618.858 267.586 621.538 240.875 621.959C239.361 621.952 239.857 622.23 238.824 621.576C241.571 619.868 267.342 613.659 272.17 612.358C288.924 607.844 306.232 602.847 323.149 599.107Z"/><path fill="#F68429" d="M406.543 702.773C410.84 706.218 414.546 710.617 419.513 714.587C409.889 728.463 394.543 747.229 383.791 761.202C382.164 763.509 379.141 767.036 377.29 769.342C385.358 748.91 397.469 723.17 406.543 702.773Z"/><path fill="#FEC922" d="M744.691 550.842C751.741 553.644 793.647 572.577 797.248 575.789L795.884 575.994C779.59 573.517 763.283 571.127 746.963 568.825C745.802 563.972 743.756 558.838 741.792 554.263L744.691 550.842Z"/><path fill="#FBA925" d="M613.958 446.5C620.38 446.369 623.517 447.346 629.2 449.814C620.344 456.503 616.576 459.22 609.335 467.476C608.122 468.822 608.83 468.523 607.346 468.925C603.859 466.921 599.769 461.57 597.026 458.314C602.505 451.416 605.826 449.505 613.958 446.5Z"/><path fill="#FBA925" d="M508.54 368.54C515.543 368.255 517.41 368.84 523.575 371.546C519.918 374.663 515.788 377.426 511.722 379.972C507.375 380.354 500.873 376.426 497.133 374.385C501.469 370.639 503.235 369.976 508.54 368.54Z"/><path fill="#FBA925" d="M816.393 263.647C817.55 262.436 817.568 261.947 818.83 261.823C818.651 263.393 817.946 263.978 816.94 265.215L816.393 263.647Z"/><path fill="#0E0D0D" fill-opacity="0.019607844" d="M812.035 527.678L813.856 528.084L813.804 528.633L813.535 528.081L813.147 528.825L812.541 528.927C811.758 528.98 811.005 529.084 810.235 529.239L810.278 528.739L812.035 527.678Z"/></svg>